<?xml version="1.0" encoding="UTF-8"?>
<svg version="1.1" xmlns="http://www.w3.org/2000/svg" width="743" height="306">
<path d="M0 0 C24.00204036 18.70971538 39.6028154 44.12614403 43.9543457 74.43505859 C47.36156159 102.84387211 40.16682685 132.7458535 22.56762695 155.55224609 C3.2528552 179.32478929 -22.76721797 195.44200116 -53.56518555 198.71240234 C-78.03773629 200.84819723 -100.08009877 195.99568834 -121.3815918 184.09521484 C-122.36772461 183.55123047 -123.35385742 183.00724609 -124.36987305 182.44677734 C-149.83285492 167.33849577 -166.09816851 141.29879156 -173.4362793 113.18896484 C-177.41848709 96.55558922 -177.28036794 76.51724851 -172.3815918 60.09521484 C-172.18823242 59.43440918 -171.99487305 58.77360352 -171.7956543 58.09277344 C-167.02170672 42.16856403 -159.4181073 28.5436089 -148.3815918 16.09521484 C-147.75897461 15.32951172 -147.13635742 14.56380859 -146.49487305 13.77490234 C-111.29222562 -28.58635473 -42.76068633 -32.241984 0 0 Z M-129.3815918 28.09521484 C-130.1240918 28.82611328 -130.8665918 29.55701172 -131.6315918 30.31005859 C-139.54863781 38.61367912 -144.7033135 48.7107392 -148.7565918 59.34521484 C-148.99522949 59.96984619 -149.23386719 60.59447754 -149.47973633 61.23803711 C-157.20932346 82.67464698 -154.58230448 106.57311743 -145.51220703 127.12792969 C-135.26289201 148.50742241 -116.81252154 163.67468612 -95.0925293 172.41943359 C-71.88742884 180.16406389 -47.97768786 177.87290088 -25.8581543 167.91162109 C-4.29936589 156.64775974 11.34204768 137.67097221 18.9309082 114.59521484 C25.72253692 90.6350483 22.8408541 66.51343846 11.046875 44.66333008 C-0.91101989 23.84692616 -20.90954473 9.63640309 -43.79956055 3.12255859 C-75.42840961 -4.29314757 -106.61949908 5.36545464 -129.3815918 28.09521484 Z " fill="#6399AF" transform="translate(409.381591796875,56.90478515625)"/>
<path d="M0 0 C0.66 0 1.32 0 2 0 C3.00935416 4.0602345 4.0058367 8.12352164 5 12.1875 C5.28617187 13.33798828 5.57234375 14.48847656 5.8671875 15.67382812 C6.13789063 16.78564453 6.40859375 17.89746094 6.6875 19.04296875 C6.93886719 20.06414795 7.19023437 21.08532715 7.44921875 22.13745117 C7.98627586 24.92867219 8.36319536 27.17845554 8 30 C6.53125 31.75585938 6.53125 31.75585938 4.5 33.34375 C3.7678125 33.93929687 3.035625 34.53484375 2.28125 35.1484375 C1.5284375 35.75945312 0.775625 36.37046875 0 37 C-1.3454459 38.22642568 -2.67906725 39.4659606 -4 40.71875 C-4.66 41.34136719 -5.32 41.96398437 -6 42.60546875 C-6.66 43.23066406 -7.32 43.85585937 -8 44.5 C-13.232183 49.4562671 -18.54359947 54.2909522 -24 59 C-26.70320817 54.94518774 -27.51616309 50.81702192 -28.6875 46.125 C-28.92533203 45.22652344 -29.16316406 44.32804687 -29.40820312 43.40234375 C-29.62798828 42.52964844 -29.84777344 41.65695313 -30.07421875 40.7578125 C-30.27619873 39.9652002 -30.47817871 39.17258789 -30.6862793 38.35595703 C-31.07867975 35.40913651 -31.02986595 33.82143911 -30 31 C-28.06404701 28.53930847 -25.84743319 26.40635102 -23.59375 24.23828125 C-22.95385132 23.60641403 -22.31395264 22.97454681 -21.65466309 22.3235321 C-19.61235194 20.31018472 -17.55686787 18.31096417 -15.5 16.3125 C-13.4457975 14.30078335 -11.39441952 12.28626389 -9.34533691 10.26933289 C-8.07016159 9.0158821 -6.79152274 7.76594344 -5.50915527 6.51985168 C-2.36351087 3.56230911 -2.36351087 3.56230911 0 0 Z " fill="#6298AE" transform="translate(339,105)"/>
<path d="M0 0 C2.46869188 0.02523139 4.79132188 0.16974714 7.23828125 0.42578125 C8.31495308 0.52635078 8.31495308 0.52635078 9.41337585 0.62895203 C11.71417816 0.84672524 14.01316903 1.07975669 16.3125 1.3125 C17.85082325 1.45861401 19.38923424 1.60380737 20.92773438 1.74804688 C22.40632995 1.8897935 23.88484854 2.03234589 25.36328125 2.17578125 C26.05303543 2.24251541 26.74278961 2.30924957 27.45344543 2.37800598 C31.01899956 2.740325 34.50031131 3.22402799 38 4 C34.5093153 7.57394873 30.88961854 10.91128106 27.0625 14.125 C26.50763916 14.59147949 25.95277832 15.05795898 25.38110352 15.53857422 C21.10411495 19.11378069 16.79143014 22.64392727 12.4375 26.125 C11.85427979 26.59824707 11.27105957 27.07149414 10.67016602 27.55908203 C3.34128303 33.35421162 -2.59255466 31.71385319 -11.5 30.6875 C-12.73621094 30.55666016 -13.97242188 30.42582031 -15.24609375 30.29101562 C-16.43332031 30.15759766 -17.62054688 30.02417969 -18.84375 29.88671875 C-19.92849609 29.76514404 -21.01324219 29.64356934 -22.13085938 29.51831055 C-24.80330974 29.03553211 -26.67216867 28.36130281 -29 27 C-27.96166016 26.05253906 -27.96166016 26.05253906 -26.90234375 25.0859375 C-20.86396063 19.56767161 -14.85547449 14.01850286 -8.875 8.4375 C-8.22394287 7.83019043 -7.57288574 7.22288086 -6.90209961 6.59716797 C-4.57408554 4.42205769 -2.25303694 2.25303694 0 0 Z " fill="#6299AE" transform="translate(351,143)"/>
<path d="M0 0 C0 0.66 0 1.32 0 2 C0.66 2 1.32 2 2 2 C0.41438362 5.85593074 -2.06509954 8.33216291 -5 11.25 C-6.3303125 12.58804688 -6.3303125 12.58804688 -7.6875 13.953125 C-10 16 -10 16 -12 16 C-12 16.66 -12 17.32 -12 18 C-13.50390625 19.48046875 -13.50390625 19.48046875 -15.5625 21.1875 C-18.3253868 23.53279758 -20.96679757 25.90829405 -23.5 28.5 C-25.81569566 30.86094449 -28.19516827 33.07936133 -30.703125 35.234375 C-34.99226643 38.9637204 -39.12807593 42.83769759 -43.25 46.75 C-49.16113496 52.33716671 -55.10550046 57.88005431 -61.11328125 63.36328125 C-64.23101225 66.21100577 -67.3360167 69.07210939 -70.4375 71.9375 C-70.97938965 72.43813965 -71.5212793 72.9387793 -72.07958984 73.45458984 C-73.17564318 74.46725844 -74.27167179 75.47995378 -75.36767578 76.49267578 C-76.97195361 77.97410134 -78.57754366 79.45408992 -80.18359375 80.93359375 C-85.38690443 85.72855142 -90.57820947 90.53541237 -95.74487305 95.36987305 C-101.42301952 100.68265431 -107.10087548 105.9912411 -112.91796875 111.15234375 C-114.22780155 112.31472821 -115.52431834 113.49247254 -116.80078125 114.69140625 C-118.375 116.125 -118.375 116.125 -121 118 C-123.375 117.8125 -123.375 117.8125 -125 117 C-124.41729578 113.60360053 -123.34349662 111.97550484 -120.90234375 109.57421875 C-120.26941406 108.94580078 -119.63648438 108.31738281 -118.984375 107.66992188 C-118.30890625 107.01572266 -117.6334375 106.36152344 -116.9375 105.6875 C-115.91076172 104.67719727 -115.91076172 104.67719727 -114.86328125 103.64648438 C-110.9159706 99.78547424 -106.90650132 96.0330787 -102.6875 92.46875 C-100.87059567 90.88737031 -99.1878872 89.21802804 -97.5 87.5 C-95.24202057 85.20673964 -92.94003496 83.03571972 -90.5 80.9375 C-86.50922186 77.49477844 -82.65908437 73.91420897 -78.8125 70.3125 C-77.84896606 69.41180786 -77.84896606 69.41180786 -76.8659668 68.49291992 C-74.27834245 66.0729254 -71.69179583 63.65187076 -69.11328125 61.22216797 C-67.34998818 59.5608564 -65.58165452 57.90506481 -63.8125 56.25 C-63.28438721 55.74895752 -62.75627441 55.24791504 -62.2121582 54.73168945 C-59.63374755 52.32726401 -57.27951529 50.34624494 -54 49 C-54 48.34 -54 47.68 -54 47 C-52.77734375 45.765625 -52.77734375 45.765625 -50.9375 44.25 C-46.71276167 40.66309961 -42.66301733 36.91848763 -38.625 33.125 C-34.45042497 29.21079241 -30.26873251 25.3118782 -26 21.5 C-21.63421767 17.59803603 -17.34304754 13.61990566 -13.0625 9.625 C-12.41087891 9.01720703 -11.75925781 8.40941406 -11.08789062 7.78320312 C-7.68976465 4.64276216 -7.68976465 4.64276216 -4.48608398 1.31005859 C-3 0 -3 0 0 0 Z " fill="#5C8799" transform="translate(404,86)"/>
<path d="M0 0 C0.34087929 3.93688387 0.67128501 7.8745833 1 11.8125 C1.14308594 13.46282227 1.14308594 13.46282227 1.2890625 15.14648438 C1.47154238 17.35579432 1.63639172 19.56663043 1.78369141 21.77856445 C1.92333685 23.85827291 2.10010661 25.935974 2.32177734 28.00854492 C2.60091607 31.93304617 2.77614236 34.77844214 0.62207031 38.16870117 C-1.26628868 40.19614681 -3.22775452 41.93796513 -5.375 43.6875 C-6.07367188 44.30560547 -6.77234375 44.92371094 -7.4921875 45.56054688 C-12.60517892 50 -12.60517892 50 -15 50 C-16.00902149 45.77293349 -17.00563371 41.54303585 -18 37.3125 C-18.28617187 36.11431641 -18.57234375 34.91613281 -18.8671875 33.68164062 C-19.13789063 32.52470703 -19.40859375 31.36777344 -19.6875 30.17578125 C-20.06455078 28.58117065 -20.06455078 28.58117065 -20.44921875 26.9543457 C-21.40032593 21.85268435 -21.40032593 21.85268435 -21 19 C-19.28759766 16.68823242 -19.28759766 16.68823242 -16.9140625 14.35546875 C-16.06585938 13.51435547 -15.21765625 12.67324219 -14.34375 11.80664062 C-13.4465625 10.94232422 -12.549375 10.07800781 -11.625 9.1875 C-10.73554688 8.30384766 -9.84609375 7.42019531 -8.9296875 6.50976562 C-2.29425072 0 -2.29425072 0 0 0 Z " fill="#6297AE" transform="translate(376,70)"/>
<path d="M0 0 C5.15016821 2.29955625 8.78329702 6.14020291 12.8125 10 C14.01422852 11.07701172 14.01422852 11.07701172 15.24023438 12.17578125 C20.78966235 17.53024218 20.78966235 17.53024218 21.35473633 21.47875977 C21.12572478 24.08455347 20.64667712 26.46682686 20 29 C19.84909912 29.77069824 19.69819824 30.54139648 19.54272461 31.33544922 C19.10493685 33.55296548 18.59617833 35.74128472 18.0625 37.9375 C17.89298828 38.67806641 17.72347656 39.41863281 17.54882812 40.18164062 C16.73503784 43.60079753 15.96846113 46.0473083 14 49 C10.90296672 47.63107063 8.88238392 46.07882641 6.5625 43.625 C4.4076428 41.34939649 2.78888157 39.87422732 0.0625 38.25 C-3.36481207 34.51111411 -2.20569335 29.87489527 -2 25 C-1.73450191 20.59757101 -1.38095059 16.20630169 -1 11.8125 C-0.90460938 10.66974609 -0.80921875 9.52699219 -0.7109375 8.34960938 C-0.47800271 5.56603862 -0.24095912 2.78288561 0 0 Z " fill="#6296AB" transform="translate(311,69)"/>
<path d="M0 0 C1.54879268 0.14491059 3.09762061 0.28944499 4.64648438 0.43359375 C8.41057679 0.78472494 12.17415508 1.14094958 15.9375 1.5 C12.72429178 5.43050219 9.73627989 8.69106041 5.6875 11.8125 C4.81609375 12.48925781 3.9446875 13.16601562 3.046875 13.86328125 C2.35078125 14.40339844 1.6546875 14.94351563 0.9375 15.5 C0.4425 15.995 0.4425 15.995 -0.0625 16.5 C-9.18161136 16.2525504 -18.31792501 14.9724528 -27.375 13.9375 C-28.60412109 13.79892578 -29.83324219 13.66035156 -31.09960938 13.51757812 C-34.08747681 13.18042577 -37.07509336 12.84120697 -40.0625 12.5 C-33.2341821 4.42965535 -33.2341821 4.42965535 -30.25 1.5625 C-29.66605469 0.97597656 -29.08210938 0.38945313 -28.48046875 -0.21484375 C-20.92300901 -4.23165192 -8.38691334 -0.80131458 0 0 Z " fill="#6194A9" transform="translate(408.0625,116.5)"/>
<path d="M0 0 C4.05790843 -0.263929 6.53588941 0.18160034 9.65991211 2.69335938 C10.70156689 3.70225771 11.72128403 4.73427076 12.71850586 5.78710938 C13.25024414 6.31175781 13.78198242 6.83640625 14.32983398 7.37695312 C15.6251194 8.6605693 16.89352068 9.97121958 18.15600586 11.28710938 C16.15600586 14.28710938 16.15600586 14.28710938 13.71459961 14.94726562 C12.68463867 15.08003906 11.65467773 15.2128125 10.59350586 15.34960938 C9.43592773 15.50300781 8.27834961 15.65640625 7.08569336 15.81445312 C5.14049805 16.04841797 5.14049805 16.04841797 3.15600586 16.28710938 C1.67937941 16.47541069 0.20281881 16.66422891 -1.27368164 16.85351562 C-2.77612365 17.04101754 -4.27872699 17.22723152 -5.78149414 17.41210938 C-6.49055908 17.49984619 -7.19962402 17.58758301 -7.93017578 17.67797852 C-9.89842952 17.908457 -11.87125474 18.09884795 -13.84399414 18.28710938 C-14.8971582 18.39152344 -15.95032227 18.4959375 -17.03540039 18.60351562 C-20.80646708 18.17868057 -22.16224287 16.73408619 -24.84399414 14.09960938 C-26.1240332 12.87177734 -26.1240332 12.87177734 -27.42993164 11.61914062 C-28.62489258 10.46478516 -28.62489258 10.46478516 -29.84399414 9.28710938 C-31.04034858 8.27280887 -32.24621332 7.26939065 -33.46899414 6.28710938 C-34.25274414 5.62710938 -35.03649414 4.96710938 -35.84399414 4.28710938 C-35.84399414 3.95710938 -35.84399414 3.62710938 -35.84399414 3.28710938 C-31.3095729 2.85449268 -26.77467022 2.42747025 -22.23925781 2.00537109 C-20.70005475 1.86135775 -19.16098781 1.71588113 -17.62207031 1.56884766 C-11.75145104 1.00865224 -5.86671851 0.59226208 0 0 Z " fill="#6396AC" transform="translate(298.843994140625,113.712890625)"/>
<path d="M0 0 C1.04994141 0.11859375 2.09988281 0.2371875 3.18164062 0.359375 C6.10740745 0.69816738 9.02044077 1.09407474 11.9375 1.5 C13.06067627 1.62375 13.06067627 1.62375 14.20654297 1.75 C15.79290094 1.93125182 17.36848981 2.20404246 18.9375 2.5 C19.4325 3.49 19.4325 3.49 19.9375 4.5 C17.75155921 6.23116808 15.56380663 7.95996163 13.375 9.6875 C12.76591797 10.17025391 12.15683594 10.65300781 11.52929688 11.15039062 C9.67461401 12.61254801 7.80707209 14.05694997 5.9375 15.5 C5.32664551 15.98807129 4.71579102 16.47614258 4.08642578 16.97900391 C1.55034789 18.92798217 -0.41907953 20.40584091 -3.625 20.875 C-4.429375 20.75125 -5.23375 20.6275 -6.0625 20.5 C-7.44888672 20.30083984 -7.44888672 20.30083984 -8.86328125 20.09765625 C-9.91902344 19.90042969 -10.97476562 19.70320313 -12.0625 19.5 C-12.71009277 19.37995605 -13.35768555 19.25991211 -14.02490234 19.13623047 C-18.38450438 18.31874114 -22.72571797 17.43056457 -27.0625 16.5 C-27.0625 13.5 -27.0625 13.5 -25.8125 11.921875 C-25.235 11.37015625 -24.6575 10.8184375 -24.0625 10.25 C-23.505625 9.70859375 -22.94875 9.1671875 -22.375 8.609375 C-21.611875 7.91328125 -20.84875 7.2171875 -20.0625 6.5 C-19.53084229 5.901875 -18.99918457 5.30375 -18.45141602 4.6875 C-12.59263452 -1.38298983 -8.05480306 -1.15139514 0 0 Z " fill="#6398AE" transform="translate(318.0625,185.5)"/>
<path d="M0 0 C4.9690231 -0.36860493 7.75927938 0.066717 11.65673828 3.28759766 C12.97054925 4.55673905 14.25963264 5.85193302 15.52392578 7.17041016 C16.19423828 7.82138672 16.86455078 8.47236328 17.55517578 9.14306641 C20.97531234 12.52830361 20.97531234 12.52830361 22.39892578 14.29541016 C22.39892578 14.95541016 22.39892578 15.61541016 22.39892578 16.29541016 C19.02570802 16.97131204 15.65010336 17.63446534 12.27392578 18.29541016 C11.32259766 18.48619141 10.37126953 18.67697266 9.39111328 18.87353516 C-3.00801301 21.28447638 -3.00801301 21.28447638 -7.78466797 18.31884766 C-8.88139217 17.45109888 -9.96575152 16.56754078 -11.03857422 15.67041016 C-11.60406982 15.21617676 -12.16956543 14.76194336 -12.75219727 14.29394531 C-14.38249968 12.97706356 -15.99461624 11.64122111 -17.60107422 10.29541016 C-18.39255859 9.63541016 -19.18404297 8.97541016 -19.99951172 8.29541016 C-21.54882643 6.98007358 -23.0781679 5.64123434 -24.60107422 4.29541016 C-22.26637758 1.96071352 -21.56641412 1.96824342 -18.38232422 1.66259766 C-17.53154297 1.57880859 -16.68076172 1.49501953 -15.80419922 1.40869141 C-14.91216797 1.33005859 -14.02013672 1.25142578 -13.10107422 1.17041016 C-12.23998047 1.08404297 -11.37888672 0.99767578 -10.49169922 0.90869141 C-6.99448271 0.5788641 -3.49049532 0.39642382 0 0 Z " fill="#6398AD" transform="translate(374.60107421875,184.70458984375)"/>
<path d="M0 0 C0.99 0.33 1.98 0.66 3 1 C3.81542969 2.87011719 3.81542969 2.87011719 4.421875 5.296875 C4.64230469 6.1734375 4.86273438 7.05 5.08984375 7.953125 C5.30769531 8.87609375 5.52554687 9.7990625 5.75 10.75 C5.98332031 11.6575 6.21664063 12.565 6.45703125 13.5 C8.41703996 21.52782009 8.41703996 21.52782009 7 26 C5.50952148 27.8527832 5.50952148 27.8527832 3.62109375 29.55078125 C2.61079102 30.47407227 2.61079102 30.47407227 1.58007812 31.41601562 C0.87302734 32.04185547 0.16597656 32.66769531 -0.5625 33.3125 C-1.27341797 33.95767578 -1.98433594 34.60285156 -2.71679688 35.26757812 C-4.46911685 36.85525058 -6.23008721 38.43200013 -8 40 C-11.65839929 36.73275828 -12.43708018 33.22410374 -13.75 28.625 C-13.98332031 27.86960938 -14.21664063 27.11421875 -14.45703125 26.3359375 C-15.65886973 22.21946079 -16.37746291 19.21638037 -15 15 C-14.34 15 -13.68 15 -13 15 C-12.78601563 14.45859375 -12.57203125 13.9171875 -12.3515625 13.359375 C-10.51922057 10.1607203 -8.00203394 7.79035516 -5.375 5.25 C-4.859375 4.74339844 -4.34375 4.23679688 -3.8125 3.71484375 C-2.54616661 2.47196098 -1.2736856 1.23534724 0 0 Z " fill="#6194A9" transform="translate(292,153)"/>
<path d="M0 0 C13.42857143 11.14285714 13.42857143 11.14285714 18 18 C16.71942587 25.81150221 14.22384823 33.41084804 12 41 C8.10061603 39.26694046 5.78373964 36.91296727 2.890625 33.84375 C1.06511738 31.95468852 1.06511738 31.95468852 -1.078125 30.59375 C-3.15189555 29.18946443 -4.5911203 28.07648609 -6 26 C-6.22481235 22.11868091 -5.0941716 18.6978534 -4 15 C-3.64500241 13.65228057 -3.29498802 12.3032415 -2.94921875 10.953125 C-2.00490483 7.29073576 -1.01302881 3.64395315 0 0 Z " fill="#6196AB" transform="translate(393,151)"/>
<path d="M0 0 C3.77266616 1.59035108 6.33683454 3.96777337 9.3125 6.75 C9.82449951 7.22663086 10.33649902 7.70326172 10.86401367 8.19433594 C11.98017481 9.23437625 13.09443579 10.27645863 14.20703125 11.3203125 C16.09036872 13.08465915 17.98189065 14.83989521 19.875 16.59375 C21.18772445 17.81225823 22.50022773 19.0310048 23.8125 20.25 C24.42198486 20.81557617 25.03146973 21.38115234 25.65942383 21.96386719 C26.84665925 23.0712871 28.02883175 24.18416281 29.20556641 25.30273438 C30.46865738 26.4974294 31.74868946 27.67434007 33.04052734 28.83789062 C33.69102051 29.44310547 34.34151367 30.04832031 35.01171875 30.671875 C35.60815186 31.21424805 36.20458496 31.75662109 36.8190918 32.31542969 C38 34 38 34 37.68676758 36.20800781 C37.46013428 36.79936523 37.23350098 37.39072266 37 38 C32.69050918 37.52800815 30.22728991 34.74541283 27.25 31.875 C26.25623274 30.93381302 25.26142074 29.99372804 24.265625 29.0546875 C23.74484375 28.56202393 23.2240625 28.06936035 22.6875 27.56176758 C20.86963285 25.87934626 19.01162265 24.2519875 17.140625 22.62890625 C12.82694709 18.87788198 8.65742561 14.98510805 4.5 11.0625 C3.40945313 10.03672852 3.40945313 10.03672852 2.296875 8.99023438 C0.53008286 7.32805493 -1.23552048 5.66463361 -3 4 C-2.01 2.68 -1.02 1.36 0 0 Z " fill="#5D8D9E" transform="translate(370,165)"/>
<path d="M0 0 C4.57782964 1.42696311 7.03107885 3.74461964 10.3125 7.1875 C13.94675883 10.93721848 17.63641077 14.50973272 21.609375 17.8984375 C27.54154901 23.1133225 33.24327251 28.59294873 39 34 C38.34 35.32 37.68 36.64 37 38 C33.30213526 38 32.86969671 37.27595512 30.26953125 34.78125 C29.54830078 34.09546875 28.82707031 33.4096875 28.08398438 32.703125 C27.33439453 31.97609375 26.58480469 31.2490625 25.8125 30.5 C24.71711914 29.45585938 24.71711914 29.45585938 23.59960938 28.390625 C19.92517255 24.87566329 16.30384276 21.31297969 12.71875 17.70703125 C10.12006141 15.09710127 7.4942283 12.57583402 4.6875 10.1875 C-0.22878015 5.98921614 -0.22878015 5.98921614 -2 4 C-2 3.34 -2 2.68 -2 2 C-1.34 2 -0.68 2 0 2 C0 1.34 0 0.68 0 0 Z " fill="#628C9F" transform="translate(283,85)"/>
<path d="M0 0 C1.54261706 0.16764133 3.08219397 0.36508427 4.61791992 0.5871582 C5.43209885 0.68301712 6.24627777 0.77887604 7.08512878 0.87763977 C9.67680376 1.18875773 12.26173747 1.53771635 14.84838867 1.88793945 C16.60784447 2.10594948 18.36761024 2.32147321 20.12768555 2.53442383 C24.43454411 3.06101362 28.73575622 3.62158156 33.03588867 4.20043945 C33.03588867 5.19043945 33.03588867 6.18043945 33.03588867 7.20043945 C29.36280876 9.64915939 26.92683165 9.33017129 22.72338867 9.01293945 C21.99514893 8.96468018 21.26690918 8.9164209 20.51660156 8.86669922 C10.63685493 8.13177388 0.83098086 6.65323463 -8.96411133 5.20043945 C-6.05587933 1.4620072 -4.83103791 0.24427432 0 0 Z " fill="#527B8B" transform="translate(369.964111328125,129.799560546875)"/>
<path d="M0 0 C2.4954036 0.03980398 4.9492976 0.14784358 7.4375 0.3125 C8.18725098 0.36027588 8.93700195 0.40805176 9.70947266 0.45727539 C15.44156422 0.84618361 21.16035086 1.34624889 26.875 1.9375 C27.64126709 2.01202393 28.40753418 2.08654785 29.19702148 2.16333008 C32.8360404 2.56411751 34.90030388 2.93353592 38 5 C36.40974697 6.91208246 35.52597422 7.90752676 33.03369141 8.34570312 C25.43497317 8.13342147 17.9252943 7.36311294 10.375 6.5 C9.08464844 6.35691406 7.79429687 6.21382812 6.46484375 6.06640625 C3.30931947 5.71579244 0.15444013 5.36021548 -3 5 C-1.125 1.125 -1.125 1.125 0 0 Z " fill="#527B8C" transform="translate(358,137)"/>
<path d="M0 0 C0.99 0.33 1.98 0.66 3 1 C4.56483705 5.13082215 5.35406279 9.50525114 6.3125 13.8125 C6.60189453 15.01455078 6.89128906 16.21660156 7.18945312 17.45507812 C7.45306641 18.61072266 7.71667969 19.76636719 7.98828125 20.95703125 C8.23102783 22.01897705 8.47377441 23.08092285 8.72387695 24.17504883 C9.02829315 27.28946072 8.80289256 28.48129962 7 31 C6.01 31.66 5.02 32.32 4 33 C2.65279868 27.67005304 1.31997032 22.33675377 0 17 C-0.23460937 16.05769531 -0.46921875 15.11539063 -0.7109375 14.14453125 C-1.68649373 10.03729813 -2.41205424 6.223556 -2 2 C-1.34 1.34 -0.68 0.68 0 0 Z " fill="#547E90" transform="translate(345,99)"/>
<path d="M0 0 C1.33157906 0.08677592 2.66234583 0.18662987 3.9921875 0.296875 C4.6934375 0.3477124 5.3946875 0.3985498 6.1171875 0.45092773 C13.7326226 1.04122558 21.30147474 2.01061381 28.8671875 3.046875 C28.8671875 4.036875 28.8671875 5.026875 28.8671875 6.046875 C26.8671875 8.046875 26.8671875 8.046875 24.56396484 8.10620117 C23.6198877 8.01830322 22.67581055 7.93040527 21.703125 7.83984375 C20.14271484 7.7015918 20.14271484 7.7015918 18.55078125 7.56054688 C17.45894531 7.45291016 16.36710937 7.34527344 15.2421875 7.234375 C14.17355469 7.13833984 13.10492188 7.04230469 12.00390625 6.94335938 C6.27595696 6.41847349 0.56955512 5.79936661 -5.1328125 5.046875 C-5.1328125 0.77075354 -4.24313005 0.06348823 0 0 Z " fill="#6897AD" transform="translate(322.1328125,172.953125)"/>
<path d="M0 0 C1.21558594 0.09796875 2.43117188 0.1959375 3.68359375 0.296875 C4.33529541 0.3477124 4.98699707 0.3985498 5.65844727 0.45092773 C13.50187589 1.09751197 21.31411102 2.06264095 29.12109375 3.046875 C29.12109375 4.036875 29.12109375 5.026875 29.12109375 6.046875 C24.89861544 8.14244956 21.93443716 8.11800684 17.2890625 7.5859375 C15.99677734 7.44414062 14.70449219 7.30234375 13.37304688 7.15625 C12.01819678 6.99506363 10.66337943 6.83360183 9.30859375 6.671875 C7.93437387 6.51707893 6.56002528 6.363421 5.18554688 6.2109375 C1.82929382 5.83409505 -1.52520385 5.44567995 -4.87890625 5.046875 C-4.87890625 0.95580189 -4.10876754 0.06689988 0 0 Z " fill="#4A7180" transform="translate(314.87890625,178.953125)"/>
<path d="M0 0 C0.99 0.33 1.98 0.66 3 1 C4.37441953 4.85880969 5.12101975 8.86587252 5.95458984 12.87353516 C6.37297774 14.86537253 6.82358184 16.847993 7.27734375 18.83203125 C7.54417969 20.08113281 7.81101562 21.33023438 8.0859375 22.6171875 C8.3339209 23.76815918 8.5819043 24.91913086 8.83740234 26.10498047 C9 29 9 29 7.68212891 30.89892578 C6 32 6 32 4 32 C2.99064584 27.9397655 1.9941633 23.87647836 1 19.8125 C0.71382813 18.66201172 0.42765625 17.51152344 0.1328125 16.32617188 C-0.13789063 15.21435547 -0.40859375 14.10253906 -0.6875 12.95703125 C-0.93886719 11.93585205 -1.19023437 10.91467285 -1.44921875 9.86254883 C-1.97699853 7.11954445 -2.25555486 4.78066588 -2 2 C-1.34 1.34 -0.68 0.68 0 0 Z " fill="#5E879A" transform="translate(351,93)"/>
<path d="M0 0 C2 1 2 1 2.68603516 2.74658203 C3.34138227 5.20400105 3.99435784 7.66109575 4.625 10.125 C4.85445313 10.96804687 5.08390625 11.81109375 5.3203125 12.6796875 C6.60419154 17.60122382 7.26174903 21.9165584 7 27 C5.02 27.99 5.02 27.99 3 29 C1.95112684 26.0107115 0.96120948 23.01811864 0 20 C-0.40605469 18.75863281 -0.81210937 17.51726562 -1.23046875 16.23828125 C-1.63500864 14.9095208 -2.03735084 13.58008929 -2.4375 12.25 C-2.82808594 10.99703125 -3.21867187 9.7440625 -3.62109375 8.453125 C-4 5 -4 5 -2.09765625 2.046875 C-1.40542969 1.37140625 -0.71320313 0.6959375 0 0 Z " fill="#588091" transform="translate(299,146)"/>
<path d="M0 0 C3.61365355 3.61365355 4.08081832 9.08652592 5.3125 13.9375 C5.61478516 15.04802734 5.91707031 16.15855469 6.22851562 17.30273438 C6.49986328 18.36685547 6.77121094 19.43097656 7.05078125 20.52734375 C7.30512939 21.50437256 7.55947754 22.48140137 7.8215332 23.48803711 C8 26 8 26 6.68432617 27.84204102 C5 29 5 29 3 29 C1.96350499 25.25414902 0.9485563 21.50278991 -0.0625 17.75 C-0.35705078 16.68652344 -0.65160156 15.62304688 -0.95507812 14.52734375 C-1.22900391 13.50253906 -1.50292969 12.47773438 -1.78515625 11.421875 C-2.04176025 10.47924805 -2.29836426 9.53662109 -2.56274414 8.56542969 C-3.01323669 5.92233883 -2.97223308 4.47748422 -2 2 C-1.34 1.34 -0.68 0.68 0 0 Z " fill="#456D7F" transform="translate(305,140)"/>
<path d="M0 0 C0.66 1.32 1.32 2.64 2 4 C-2.20767175 4.50567374 -6.41623253 5.0035354 -10.625 5.5 C-11.81480469 5.64308594 -13.00460937 5.78617188 -14.23046875 5.93359375 C-15.38417969 6.06894531 -16.53789062 6.20429688 -17.7265625 6.34375 C-19.31331787 6.53227539 -19.31331787 6.53227539 -20.93212891 6.72460938 C-23.97322227 6.99759627 -26.94852512 7.04799174 -30 7 C-27.67621345 3.7294856 -26.11260892 2.30836933 -22.1953125 1.22265625 C-14.79063023 0.00629957 -7.48994238 -0.24291705 0 0 Z " fill="#639BAE" transform="translate(376,179)"/>
<path d="M0 0 C-1.65885943 3.00174563 -3.08957249 4.70492659 -6.3984375 5.77734375 C-21.04216002 8.58713365 -21.04216002 8.58713365 -26.5625 5.625 C-28 4 -28 4 -28 2 C-25.02141273 1.66062892 -22.04230315 1.32837741 -19.0625 1 C-18.23169922 0.90460938 -17.40089844 0.80921875 -16.54492188 0.7109375 C-10.99415957 0.10618519 -5.583649 -0.09014973 0 0 Z " fill="#5C7F92" transform="translate(311,131)"/>
<path d="M0 0 C-0.5973477 2.66835522 -1.20267117 5.33449363 -1.8125 8 C-1.97814453 8.74378906 -2.14378906 9.48757812 -2.31445312 10.25390625 C-3.49183797 15.36331217 -5.06664718 20.12507025 -7 25 C-9.0625 24.0625 -9.0625 24.0625 -11 22 C-11.46705057 16.06354143 -9.59921444 9.30451926 -7 4 C-3 0 -3 0 0 0 Z " fill="#517789" transform="translate(392,149)"/>
<path d="M0 0 C5.91712679 4.15457839 11.01139933 8.77258334 16 14 C15.34 15.32 14.68 16.64 14 18 C10.20215612 18 9.67042635 17.08131258 6.98828125 14.5 C6.23095703 13.778125 5.47363281 13.05625 4.69335938 12.3125 C3.90767578 11.549375 3.12199219 10.78625 2.3125 10 C1.11657227 8.8553125 1.11657227 8.8553125 -0.10351562 7.6875 C-2.07547233 5.79820017 -4.04053244 3.90223606 -6 2 C-5.34 1.67 -4.68 1.34 -4 1 C-1.875 1.9375 -1.875 1.9375 0 3 C0 2.01 0 1.02 0 0 Z " fill="#5B8699" transform="translate(306,105)"/>
<path d="M0 0 C0 0.66 0 1.32 0 2 C0.66 2 1.32 2 2 2 C0.41438362 5.85593074 -2.06509954 8.33216291 -5 11.25 C-5.886875 12.14203125 -6.77375 13.0340625 -7.6875 13.953125 C-10 16 -10 16 -12 16 C-12 16.66 -12 17.32 -12 18 C-12.66 17.67 -13.32 17.34 -14 17 C-13.835 16.401875 -13.67 15.80375 -13.5 15.1875 C-12.8885876 12.88655664 -12.8885876 12.88655664 -13 10 C-11.57421875 8.28125 -11.57421875 8.28125 -9.6875 6.5 C-9.07261719 5.9121875 -8.45773437 5.324375 -7.82421875 4.71875 C-6.92123047 3.86796875 -6.92123047 3.86796875 -6 3 C-5.49082031 2.4328125 -4.98164063 1.865625 -4.45703125 1.28125 C-3 0 -3 0 0 0 Z " fill="#557688" transform="translate(404,86)"/>
<path d="M0 0 C2.00390625 1.1953125 2.00390625 1.1953125 4 3 C4.54261762 7.50907598 3.49020476 11.87953198 1.6875 16 C-0.09963855 18.11809013 -1.52177691 18.85541861 -4 20 C-3.7155186 17.79072956 -3.4220904 15.58261021 -3.125 13.375 C-2.96257812 12.14523438 -2.80015625 10.91546875 -2.6328125 9.6484375 C-2.04516311 6.26038483 -1.18011878 3.22301349 0 0 Z " fill="#5B7985" transform="translate(334,91)"/>
<path d="M0 0 C0.78890625 0.13277344 1.5778125 0.26554688 2.390625 0.40234375 C3.24914062 0.53640625 4.10765625 0.67046875 4.9921875 0.80859375 C8.89504551 1.59146792 12.77077311 2.40358926 16.640625 3.33984375 C15.31723868 4.02604406 13.98112552 4.68770836 12.640625 5.33984375 C11.89425781 5.72914063 11.14789063 6.1184375 10.37890625 6.51953125 C6.70712563 7.61949406 3.5297393 7.0811891 -0.171875 6.46484375 C-1.21118164 6.30822266 -1.21118164 6.30822266 -2.27148438 6.1484375 C-3.96930114 5.89083771 -5.66463609 5.61697087 -7.359375 5.33984375 C-3.04716782 0.43891325 -3.04716782 0.43891325 0 0 Z " fill="#6898AB" transform="translate(368.359375,129.66015625)"/>
<path d="M0 0 C0.33 0.66 0.66 1.32 1 2 C0.67 2.66 0.34 3.32 0 4 C1.98 3.67 3.96 3.34 6 3 C2 7 -2 11 -6 15 C-6.33 13.68 -6.66 12.36 -7 11 C-8.32 11.33 -9.64 11.66 -11 12 C-11 11.34 -11 10.68 -11 10 C-10.34 10 -9.68 10 -9 10 C-9 9.34 -9 8.68 -9 8 C-7.28515625 6.30859375 -7.28515625 6.30859375 -5.0625 4.4375 C-3.96615234 3.50744141 -3.96615234 3.50744141 -2.84765625 2.55859375 C-1.93306641 1.78708984 -1.93306641 1.78708984 -1 1 C-0.67 0.67 -0.34 0.34 0 0 Z " fill="#587C8C" transform="translate(359,125)"/>
<path d="M0 0 C0.99 0.33 1.98 0.66 3 1 C5.03581546 6.07320858 5.2295747 11.60499453 5 17 C4.01 16.67 3.02 16.34 2 16 C2 15.34 2 14.68 2 14 C1.01 14 0.02 14 -1 14 C-1.22142255 12.04310341 -1.4267568 10.08438048 -1.625 8.125 C-1.74101562 7.03445312 -1.85703125 5.94390625 -1.9765625 4.8203125 C-1.98429687 3.88960938 -1.99203125 2.95890625 -2 2 C-1.34 1.34 -0.68 0.68 0 0 Z " fill="#6395A9" transform="translate(345,99)"/>
<path d="M0 0 C1.1446875 0.0928125 1.1446875 0.0928125 2.3125 0.1875 C2.355221 1.85361905 2.35313832 3.52132885 2.3125 5.1875 C1.3125 6.1875 1.3125 6.1875 -1.25 6.25 C-2.4565625 6.2190625 -2.4565625 6.2190625 -3.6875 6.1875 C-4.0175 6.8475 -4.3475 7.5075 -4.6875 8.1875 C-6.75 9.3125 -6.75 9.3125 -8.6875 10.1875 C-8.6875 11.1775 -8.6875 12.1675 -8.6875 13.1875 C-10.0075 13.5175 -11.3275 13.8475 -12.6875 14.1875 C-12.6875 10.4689858 -11.82837832 9.86945394 -9.375 7.1875 C-8.45267578 6.1665625 -8.45267578 6.1665625 -7.51171875 5.125 C-6.90972656 4.485625 -6.30773437 3.84625 -5.6875 3.1875 C-5.171875 2.61386719 -4.65625 2.04023438 -4.125 1.44921875 C-2.6875 0.1875 -2.6875 0.1875 0 0 Z " fill="#6393A5" transform="translate(349.6875,135.8125)"/>
<path d="M0 0 C2.35043586 1.98070437 4.67822804 3.98581322 7 6 C7.825 6.70125 8.65 7.4025 9.5 8.125 C9.995 8.74375 10.49 9.3625 11 10 C10.75 12.25 10.75 12.25 10 14 C6.09170915 13.4352699 4.10079777 11.57868029 1.25 8.9375 C0.45078125 8.20402344 -0.3484375 7.47054687 -1.171875 6.71484375 C-1.77515625 6.14894531 -2.3784375 5.58304688 -3 5 C-1.68 4.67 -0.36 4.34 1 4 C0.67 2.68 0.34 1.36 0 0 Z " fill="#547E8D" transform="translate(397,189)"/>
<path d="M0 0 C0.66 0 1.32 0 2 0 C2.34087929 3.93688387 2.67128501 7.8745833 3 11.8125 C3.14308594 13.46282227 3.14308594 13.46282227 3.2890625 15.14648438 C3.86480392 22.11706802 4.12656584 29.00635837 4 36 C3.01 36.495 3.01 36.495 2 37 C0.99291931 25.9760632 0.89388113 15.05994427 1 4 C-0.98 4.66 -2.96 5.32 -5 6 C-3.38405168 3.95880212 -1.7143618 1.95927063 0 0 Z " fill="#5C7C8A" transform="translate(374,70)"/>
<path d="M0 0 C0.99 0.33 1.98 0.66 3 1 C3.765625 2.92578125 3.765625 2.92578125 4.25 5.3125 C4.50523437 6.48232422 4.50523437 6.48232422 4.765625 7.67578125 C5.00771617 10.07651867 4.7310448 11.71809588 4 14 C3.34 13.67 2.68 13.34 2 13 C2 15.31 2 17.62 2 20 C1.67 20 1.34 20 1 20 C0.49309416 17.93918639 -0.00524619 15.87626474 -0.5 13.8125 C-0.7784375 12.66394531 -1.056875 11.51539062 -1.34375 10.33203125 C-1.92078398 7.40220992 -2.2948476 4.96427142 -2 2 C-1.34 1.34 -0.68 0.68 0 0 Z " fill="#598090" transform="translate(351,93)"/>
<path d="M0 0 C3.94280022 1.31426674 6.37977359 2.74730514 9 6 C10.25 9.25 10.25 9.25 11 12 C5.39487066 11.59963362 2.70978739 10.07171787 -1 6 C-0.875 2.6875 -0.875 2.6875 0 0 Z " fill="#5F8FA1" transform="translate(388,182)"/>
<path d="M0 0 C3.82246588 0.55959523 5.58971741 2.21317357 8.25 4.9375 C8.95640625 5.64777344 9.6628125 6.35804688 10.390625 7.08984375 C12 9 12 9 12 11 C7.71 11.66 3.42 12.32 -1 13 C1 9 1 9 2.9375 8.1875 C5 8 5 8 8 9 C8 8.34 8 7.68 8 7 C5.69 6.67 3.38 6.34 1 6 C0.67 6.66 0.34 7.32 0 8 C0 5 0 5 1.5 3.3125 C2.2425 2.6628125 2.2425 2.6628125 3 2 C2.01 2 1.02 2 0 2 C0 1.34 0 0.68 0 0 Z " fill="#587F92" transform="translate(385,190)"/>
<path d="M0 0 C1.875 0.25 1.875 0.25 4 1 C6.11103658 3.95545121 6.19785783 6.43855901 6 10 C4.02 10.99 4.02 10.99 2 12 C1.34 11.01 0.68 10.02 0 9 C-0.99 8.67 -1.98 8.34 -3 8 C-3 4.42424104 -1.91159393 2.94704065 0 0 Z " fill="#669BB4" transform="translate(289,156)"/>
<path d="M0 0 C-0.39611961 1.96259262 -0.81761694 3.92007661 -1.25 5.875 C-1.48203125 6.96554688 -1.7140625 8.05609375 -1.953125 9.1796875 C-3 12 -3 12 -5.109375 13.3828125 C-5.73328125 13.58648437 -6.3571875 13.79015625 -7 14 C-8.58939347 10.82121306 -8.41576711 8.5043228 -8 5 C-5.90240055 2.40543083 -3.49562183 0 0 0 Z " fill="#6090A5" transform="translate(392,149)"/>
<path d="M0 0 C1.08667969 0.29197266 1.08667969 0.29197266 2.1953125 0.58984375 C2.74960937 0.74582031 3.30390625 0.90179688 3.875 1.0625 C3.71 1.660625 3.545 2.25875 3.375 2.875 C2.7635876 5.17594336 2.7635876 5.17594336 2.875 8.0625 C-2.55896226 7.45872642 -2.55896226 7.45872642 -5 5.75 C-6.125 4.0625 -6.125 4.0625 -6.125 0.0625 C-3.57797384 -1.21101308 -2.6967055 -0.73941925 0 0 Z " fill="#659CB3" transform="translate(363.125,188.9375)"/>
<path d="M0 0 C4.75890208 0.31205915 8.64918266 0.96055437 13 3 C13 3.66 13 4.32 13 5 C7.77254141 6.2063366 3.23471686 5.75612577 -2 5 C-2 2 -2 2 0 0 Z " fill="#6594A8" transform="translate(312,179)"/>
<path d="M0 0 C-4.46798866 4.2411872 -7.96112119 7.31473149 -14 9 C-15.83689476 10.49886871 -15.83689476 10.49886871 -17 12 C-17.99 11.67 -18.98 11.34 -20 11 C-18.55746343 7.63408134 -16.66735273 5.48952921 -14 3 C-13.34 3.33 -12.68 3.66 -12 4 C-12 4.66 -12 5.32 -12 6 C-11.01 6 -10.02 6 -9 6 C-9 5.01 -9 4.02 -9 3 C-8.34 3 -7.68 3 -7 3 C-6.67 2.01 -6.34 1.02 -6 0 C-3.50907189 -1.24546405 -2.58919267 -0.7767578 0 0 Z " fill="#638EA1" transform="translate(350,143)"/>
<path d="M0 0 C1.01126953 0.44666016 1.01126953 0.44666016 2.04296875 0.90234375 C1.38296875 2.22234375 0.72296875 3.54234375 0.04296875 4.90234375 C-1.93703125 4.90234375 -3.91703125 4.90234375 -5.95703125 4.90234375 C-5.62703125 6.22234375 -5.29703125 7.54234375 -4.95703125 8.90234375 C-6.39132126 9.57588874 -7.82960182 10.24094076 -9.26953125 10.90234375 C-10.47029297 11.45921875 -10.47029297 11.45921875 -11.6953125 12.02734375 C-13.95703125 12.90234375 -13.95703125 12.90234375 -16.95703125 12.90234375 C-14.75117332 10.69023313 -12.51407618 8.512635 -10.26953125 6.33984375 C-9.64369141 5.71142578 -9.01785156 5.08300781 -8.37304688 4.43554688 C-3.61885853 -0.11951316 -3.61885853 -0.11951316 0 0 Z " fill="#5E879A" transform="translate(308.95703125,185.09765625)"/>
<path d="M0 0 C1.75 2.0625 1.75 2.0625 3 4 C-2.38490641 4.91657981 -7.54230189 5.11138159 -13 5 C-9.7106599 0.24873096 -9.7106599 0.24873096 -6.5 -0.875 C-3.94591838 -1.00270408 -2.34542347 -1.01635017 0 0 Z " fill="#517483" transform="translate(369,173)"/>
<path d="M0 0 C0.66 0 1.32 0 2 0 C2.50588147 1.91512272 3.00448391 3.83216922 3.5 5.75 C3.7784375 6.81734375 4.056875 7.8846875 4.34375 8.984375 C5 12 5 12 5 16 C4.34 16 3.68 16 3 16 C2.67 14.68 2.34 13.36 2 12 C1.01 12.33 0.02 12.66 -1 13 C-1 10.36 -1 7.72 -1 5 C-1.99 5 -2.98 5 -4 5 C-2.71937515 3.2925002 -1.38232443 1.62626404 0 0 Z " fill="#517A8A" transform="translate(339,105)"/>
<path d="M0 0 C3.63 0.33 7.26 0.66 11 1 C11 1.66 11 2.32 11 3 C12.98 3 14.96 3 17 3 C16.67 3.66 16.34 4.32 16 5 C14.68 4.67 13.36 4.34 12 4 C12 4.66 12 5.32 12 6 C8.67255773 7.10914742 6.35438475 7.03211839 3 6 C1.1875 4.625 1.1875 4.625 0 3 C0 2.01 0 1.02 0 0 Z " fill="#659CB1" transform="translate(351,144)"/>
<path d="M0 0 C0.33 0.66 0.66 1.32 1 2 C-2.96 4.97 -6.92 7.94 -11 11 C-11.66 10.34 -12.32 9.68 -13 9 C-12.01 8.34 -11.02 7.68 -10 7 C-9.74969023 4.41619823 -9.74969023 4.41619823 -10 2 C-6.49223216 0.39644899 -3.85645121 -0.22036864 0 0 Z " fill="#527F8D" transform="translate(337,188)"/>
<path d="M0 0 C0.66 1.32 1.32 2.64 2 4 C-2.76307437 4.95261487 -7.1666528 5.08333357 -12 5 C-12 4.34 -12 3.68 -12 3 C-10.02 3 -8.04 3 -6 3 C-6 2.34 -6 1.68 -6 1 C-6.680625 1.165 -7.36125 1.33 -8.0625 1.5 C-11.4164822 2.07089059 -14.60389805 2.06659023 -18 2 C-18 1.67 -18 1.34 -18 1 C-12.03325384 -0.32594359 -6.07416385 -0.0884587 0 0 Z " fill="#4A6F7D" transform="translate(376,179)"/>
<path d="M0 0 C4.95 0 9.9 0 15 0 C15 0.99 15 1.98 15 3 C14.34 3.66 13.68 4.32 13 5 C11.68 5 10.36 5 9 5 C9 4.34 9 3.68 9 3 C6.03 3 3.06 3 0 3 C0 2.01 0 1.02 0 0 Z " fill="#5A8899" transform="translate(336,176)"/>
<path d="M0 0 C16.335 1.485 16.335 1.485 33 3 C33 3.33 33 3.66 33 4 C32.12988281 4.07347656 32.12988281 4.07347656 31.2421875 4.1484375 C26.56076908 4.59649405 22.42514541 5.298021 18 7 C18.33 6.01 18.66 5.02 19 4 C16.36 4 13.72 4 11 4 C11 3.34 11 2.68 11 2 C10.06027344 2.03480469 10.06027344 2.03480469 9.1015625 2.0703125 C7.87566406 2.09738281 7.87566406 2.09738281 6.625 2.125 C5.81289063 2.14820313 5.00078125 2.17140625 4.1640625 2.1953125 C2 2 2 2 0 0 Z " fill="#547787" transform="translate(351,143)"/>
<path d="M0 0 C3 1 3 1 4.625 4.25 C6.85119048 10.32142857 6.85119048 10.32142857 7 13 C5.6875 14.8125 5.6875 14.8125 4 16 C3.34 16 2.68 16 2 16 C2 12.04 2 8.08 2 4 C1.34 4 0.68 4 0 4 C0 2.68 0 1.36 0 0 Z " fill="#557E90" transform="translate(306,153)"/>
<path d="M0 0 C-0.57344937 2.86724686 -0.8614515 3.8614515 -3 6 C-4.66611905 6.042721 -6.33382885 6.04063832 -8 6 C-8.99 6.33 -9.98 6.66 -11 7 C-10.61502006 4.76711635 -10.10506663 3.16343698 -8.875 1.25 C-6.00254099 -0.66497267 -3.35516417 -0.18991495 0 0 Z " fill="#618FA1" transform="translate(314,173)"/>
<path d="M0 0 C6.625 -0.25 6.625 -0.25 10 2 C8.34811639 4.01837869 7.49412642 4.92384106 4.87109375 5.328125 C4.06800781 5.30234375 3.26492188 5.2765625 2.4375 5.25 C1.56222656 5.22421875 0.68695313 5.1984375 -0.21484375 5.171875 C-4.49200387 4.90792683 -8.74509148 4.50696782 -13 4 C-13 3.67 -13 3.34 -13 3 C-7.72 3 -2.44 3 3 3 C3 2.34 3 1.68 3 1 C2.01 0.67 1.02 0.34 0 0 Z " fill="#4C6F7C" transform="translate(386,140)"/>
<path d="M0 0 C0.99 0.33 1.98 0.66 3 1 C0.375 7.75 0.375 7.75 -3 10 C-4.32 8.68 -5.64 7.36 -7 6 C-5.90716423 4.96704564 -4.80029421 3.94892165 -3.6875 2.9375 C-3.07261719 2.36902344 -2.45773437 1.80054687 -1.82421875 1.21484375 C-0.92123047 0.61349609 -0.92123047 0.61349609 0 0 Z " fill="#5D7F90" transform="translate(389,98)"/>
<path d="M0 0 C0.99 0.33 1.98 0.66 3 1 C2.125 5.75 2.125 5.75 1 8 C1.99 8.33 2.98 8.66 4 9 C3.01 9.495 3.01 9.495 2 10 C-1.3 7.36 -4.6 4.72 -8 2 C-7.34 1.67 -6.68 1.34 -6 1 C-5.01 1.33 -4.02 1.66 -3 2 C-2.01 1.34 -1.02 0.68 0 0 Z " fill="#608EA0" transform="translate(277,225)"/>
<path d="M0 0 C4.95 0.33 9.9 0.66 15 1 C15 1.33 15 1.66 15 2 C12.69 2.33 10.38 2.66 8 3 C8 3.33 8 3.66 8 4 C10.97 4.33 13.94 4.66 17 5 C17 5.33 17 5.66 17 6 C10.25766581 6.12910853 3.69613196 5.797837 -3 5 C-3 4.67 -3 4.34 -3 4 C-1.02 3.67 0.96 3.34 3 3 C2.01 2.01 1.02 1.02 0 0 Z " fill="#3F6270" transform="translate(328,174)"/>
<path d="M0 0 C0 0.66 0 1.32 0 2 C0.66 2 1.32 2 2 2 C0.60667426 5.36720387 -0.9789286 6.9859524 -4 9 C-4 8.34 -4 7.68 -4 7 C-5.32 7.33 -6.64 7.66 -8 8 C-7.32253522 3.25774652 -4.9532836 0 0 0 Z " fill="#5F6F79" transform="translate(404,86)"/>
<path d="M0 0 C4.41889613 1.35021826 6.34345343 3.26115668 9 7 C7.68 6.67 6.36 6.34 5 6 C4.67 6.99 4.34 7.98 4 9 C1.95880212 7.38405168 -0.04072937 5.7143618 -2 4 C-2 3.34 -2 2.68 -2 2 C-1.34 2 -0.68 2 0 2 C0 1.34 0 0.68 0 0 Z " fill="#758087" transform="translate(283,85)"/>
<path d="M0 0 C3 2 3 2 4 5 C3.67 5.66 3.34 6.32 3 7 C-0.3 6.67 -3.6 6.34 -7 6 C-7 5.34 -7 4.68 -7 4 C-4.69 2.68 -2.38 1.36 0 0 Z " fill="#629DB2" transform="translate(299,195)"/>
<path d="M0 0 C0.99 0.66 1.98 1.32 3 2 C2.71125 2.680625 2.4225 3.36125 2.125 4.0625 C-0.50296519 10.92440912 -2 17.63916681 -2 25 C-2.99 24.34 -3.98 23.68 -5 23 C-3.69951304 15.22767795 -1.99548103 7.62273755 0 0 Z " fill="#557C89" transform="translate(392,154)"/>
<path d="M0 0 C0.90105469 0.00902344 1.80210937 0.01804688 2.73046875 0.02734375 C3.41753906 0.03894531 4.10460937 0.05054688 4.8125 0.0625 C4.8125 1.0525 4.8125 2.0425 4.8125 3.0625 C1.5125 3.3925 -1.7875 3.7225 -5.1875 4.0625 C-5.1875 4.7225 -5.1875 5.3825 -5.1875 6.0625 C-6.52083333 5.39583333 -7.85416667 4.72916667 -9.1875 4.0625 C-8.8575 3.0725 -8.5275 2.0825 -8.1875 1.0625 C-5.17259443 0.05753148 -3.14568308 -0.04085303 0 0 Z " fill="#679BB4" transform="translate(380.1875,146.9375)"/>
<path d="M0 0 C0.33 0.66 0.66 1.32 1 2 C2.32 1.34 3.64 0.68 5 0 C5.99 0.66 6.98 1.32 8 2 C6.02 3.32 4.04 4.64 2 6 C0.68 5.34 -0.64 4.68 -2 4 C-2.33 4.99 -2.66 5.98 -3 7 C-6.0625 8.1875 -6.0625 8.1875 -9 9 C-6 6 -3 3 0 0 Z " fill="#527D8C" transform="translate(302,178)"/>
<path d="M0 0 C0.33 0.66 0.66 1.32 1 2 C0.34 2 -0.32 2 -1 2 C-0.67 4.31 -0.34 6.62 0 9 C-2.475 10.485 -2.475 10.485 -5 12 C-5.33 11.01 -5.66 10.02 -6 9 C-6.66 8.34 -7.32 7.68 -8 7 C-5.36 4.69 -2.72 2.38 0 0 Z " fill="#4C7382" transform="translate(324,158)"/>
<path d="M0 0 C1.32 0.33 2.64 0.66 4 1 C-1.445 5.455 -1.445 5.455 -7 10 C-7.66 9.34 -8.32 8.68 -9 8 C-8.34 8 -7.68 8 -7 8 C-7.33 6.35 -7.66 4.7 -8 3 C-5.36 3 -2.72 3 0 3 C0 2.01 0 1.02 0 0 Z " fill="#537986" transform="translate(385,147)"/>
<path d="M0 0 C1.56679892 0.24474085 3.1313453 0.50731238 4.6875 0.8125 C4.6875 1.1425 4.6875 1.4725 4.6875 1.8125 C2.7075 1.8125 0.7275 1.8125 -1.3125 1.8125 C-0.9825 3.1325 -0.6525 4.4525 -0.3125 5.8125 C-3.6125 5.4825 -6.9125 5.1525 -10.3125 4.8125 C-7.13891612 0.4752687 -5.21208833 -0.56187052 0 0 Z " fill="#4E717F" transform="translate(371.3125,130.1875)"/>
<path d="M0 0 C6.41688675 -0.10349817 12.62694402 0.25492456 19 1 C17.35 2.65 15.7 4.3 14 6 C14 5.01 14 4.02 14 3 C12.02463255 3.34786708 12.02463255 3.34786708 10 4 C9.67 4.66 9.34 5.32 9 6 C9 5.01 9 4.02 9 3 C4.545 2.01 4.545 2.01 0 1 C0 0.67 0 0.34 0 0 Z " fill="#557C8D" transform="translate(405,117)"/>
<path d="M0 0 C2.8751945 1.28888029 5.0071564 2.53266983 7 5 C7.6875 7.1875 7.6875 7.1875 8 9 C4.26879511 9 2.21944311 7.81968524 -1 6 C-1.33 5.34 -1.66 4.68 -2 4 C-1.01 4 -0.02 4 1 4 C0.67 2.68 0.34 1.36 0 0 Z " fill="#5C859A" transform="translate(299,99)"/>
<path d="M0 0 C1.32 0.33 2.64 0.66 4 1 C2.72200196 3.85091869 1.62103327 6.22144171 -1 8 C-4.1875 7.6875 -4.1875 7.6875 -7 7 C-7 6.34 -7 5.68 -7 5 C-6.030625 4.54625 -5.06125 4.0925 -4.0625 3.625 C-0.92920418 2.34213779 -0.92920418 2.34213779 0 0 Z " fill="#6292A6" transform="translate(300,182)"/>
<path d="M0 0 C-0.875 7.625 -0.875 7.625 -2 11 C-3.32 10.34 -4.64 9.68 -6 9 C-6.3125 6.75 -6.3125 6.75 -6 4 C-1.78378378 0 -1.78378378 0 0 0 Z " fill="#506774" transform="translate(381,157)"/>
<path d="M0 0 C-3.2662849 4.83894059 -3.2662849 4.83894059 -6.5625 5.5625 C-9 5 -9 5 -10.8125 3 C-11.4003125 2.01 -11.4003125 2.01 -12 1 C-8.0186217 -0.3271261 -4.14954773 -0.06915913 0 0 Z " fill="#506B79" transform="translate(303,139)"/>
<path d="M0 0 C-1.32 1.65 -2.64 3.3 -4 5 C-5.65 4.67 -7.3 4.34 -9 4 C-9 3.67 -9 3.34 -9 3 C-11.64 2.67 -14.28 2.34 -17 2 C-17 1.67 -17 1.34 -17 1 C-11.27959989 0.1679418 -5.77759884 -0.12036664 0 0 Z " fill="#527383" transform="translate(311,131)"/>
<path d="M0 0 C0.66 0 1.32 0 2 0 C2.33 2.31 2.66 4.62 3 7 C3.99 7 4.98 7 6 7 C6 7.66 6 8.32 6 9 C6.99 9.33 7.98 9.66 9 10 C7.02 11.32 5.04 12.64 3 14 C2.49528803 12.23050388 1.99639315 10.45934777 1.5 8.6875 C1.2215625 7.70136719 0.943125 6.71523437 0.65625 5.69921875 C0 3 0 3 0 0 Z " fill="#4B7585" transform="translate(311,150)"/>
<path d="M0 0 C2.97 0 5.94 0 9 0 C9 0.99 9 1.98 9 3 C5.91111478 5.05925681 5.29064073 5.2390374 1.8125 5.125 C-0.0746875 5.063125 -0.0746875 5.063125 -2 5 C-0.68 3.68 0.64 2.36 2 1 C1.34 0.67 0.68 0.34 0 0 Z " fill="#547582" transform="translate(394,134)"/>
<path d="M0 0 C0.8971875 0.309375 0.8971875 0.309375 1.8125 0.625 C0.1875 6.375 0.1875 6.375 -3.1875 8.625 C-3.1875 7.305 -3.1875 5.985 -3.1875 4.625 C-4.5075 4.955 -5.8275 5.285 -7.1875 5.625 C-7.1875 4.965 -7.1875 4.305 -7.1875 3.625 C-6.5275 3.625 -5.8675 3.625 -5.1875 3.625 C-5.1875 2.965 -5.1875 2.305 -5.1875 1.625 C-2.1875 -0.375 -2.1875 -0.375 0 0 Z " fill="#598594" transform="translate(355.1875,131.375)"/>
<path d="M0 0 C2.97 0.495 2.97 0.495 6 1 C6 1.66 6 2.32 6 3 C6.56203125 2.82597656 7.1240625 2.65195313 7.703125 2.47265625 C10.24556755 1.94946654 12.18452337 2.09795162 14.75 2.4375 C15.94882812 2.59025391 15.94882812 2.59025391 17.171875 2.74609375 C18.07679688 2.87177734 18.07679688 2.87177734 19 3 C19 3.66 19 4.32 19 5 C12.35590042 5.21432579 6.46794133 4.51233701 0 3 C0 2.01 0 1.02 0 0 Z " fill="#628799" transform="translate(317,250)"/>
<path d="M0 0 C4.554787 3.80014774 8.95279259 7.65665546 13 12 C13 12.66 13 13.32 13 14 C10 13 10 13 8 10 C5.94074861 9.27617533 5.94074861 9.27617533 4 9 C4 7.68 4 6.36 4 5 C2.68 4.67 1.36 4.34 0 4 C0 2.68 0 1.36 0 0 Z " fill="#517384" transform="translate(396,154)"/>
<path d="M0 0 C0.99 0.33 1.98 0.66 3 1 C3.984375 3.8359375 3.984375 3.8359375 4.75 7.375 C5.01296875 8.53773438 5.2759375 9.70046875 5.546875 10.8984375 C6 14 6 14 5 17 C5 16.34 5 15.68 5 15 C4.34 15 3.68 15 3 15 C2.89042969 14.39671875 2.78085937 13.7934375 2.66796875 13.171875 C1.49202872 7.06315013 1.49202872 7.06315013 -2 2 C-1.34 1.34 -0.68 0.68 0 0 Z " fill="#4E737F" transform="translate(292,153)"/>
<path d="M0 0 C0.66 0.66 1.32 1.32 2 2 C1.01 2.33 0.02 2.66 -1 3 C-1 4.32 -1 5.64 -1 7 C-2.98 7.33 -4.96 7.66 -7 8 C-6.3125 5.125 -6.3125 5.125 -5 2 C-2.375 0.625 -2.375 0.625 0 0 Z " fill="#6699AF" transform="translate(366,121)"/>
<path d="M0 0 C0.33 1.32 0.66 2.64 1 4 C1.66 4 2.32 4 3 4 C2.67 4.66 2.34 5.32 2 6 C2.33 6.33 2.66 6.66 3 7 C2.67 7.99 2.34 8.98 2 10 C0.68 9.67 -0.64 9.34 -2 9 C-2 7 -2 5 -2 3 C-2.66 3 -3.32 3 -4 3 C-4 2.34 -4 1.68 -4 1 C-2 0 -2 0 0 0 Z " fill="#689BB4" transform="translate(341,117)"/>
<path d="M0 0 C0.66 0 1.32 0 2 0 C2.33 2.97 2.66 5.94 3 9 C1.35 9.33 -0.3 9.66 -2 10 C-3.39195915 5.82412255 -1.82323219 3.86525224 0 0 Z " fill="#6292A1" transform="translate(244,98)"/>
<path d="M0 0 C0 0.66 0 1.32 0 2 C0.66 2 1.32 2 2 2 C2.33 3.32 2.66 4.64 3 6 C3.66 6 4.32 6 5 6 C4.67 7.32 4.34 8.64 4 10 C0.7 7.36 -2.6 4.72 -6 2 C-3 0 -3 0 0 0 Z " fill="#5F899B" transform="translate(401,73)"/>
<path d="M0 0 C-5.86099454 3.8515107 -12.14641138 3.70511266 -19 4 C-19.33 3.34 -19.66 2.68 -20 2 C-17.01764908 0.50882454 -13.8327662 0.31185588 -10.5625 -0.125 C-9.88123047 -0.22425781 -9.19996094 -0.32351562 -8.49804688 -0.42578125 C-5.24091126 -0.86602093 -3.16143495 -1.05381165 0 0 Z " fill="#598090" transform="translate(366,232)"/>
<path d="M0 0 C0 0.66 0 1.32 0 2 C-0.66 2 -1.32 2 -2 2 C-1.67 3.98 -1.34 5.96 -1 8 C-6.75 4.375 -6.75 4.375 -9 1 C-6.04335481 -0.4783226 -3.25770263 -0.06032783 0 0 Z " fill="#52798B" transform="translate(359,187)"/>
<path d="M0 0 C2.32590854 3.63423209 2.16265833 6.77088331 2 11 C0.02 11.99 0.02 11.99 -2 13 C-2 11.68 -2 10.36 -2 9 C-2.04125 7.989375 -2.0825 6.97875 -2.125 5.9375 C-2 3 -2 3 0 0 Z " fill="#487180" transform="translate(304,162)"/>
<path d="M0 0 C0.33 3.3 0.66 6.6 1 10 C-0.32 10.33 -1.64 10.66 -3 11 C-4.35064935 3.51003542 -4.35064935 3.51003542 -2.625 1 C-1 0 -1 0 0 0 Z " fill="#5C8193" transform="translate(306,140)"/>
<path d="M0 0 C0.99 0.33 1.98 0.66 3 1 C3.66 4.96 4.32 8.92 5 13 C4.34 13 3.68 13 3 13 C2.67 10.03 2.34 7.06 2 4 C-0.33075929 4.95865509 -0.33075929 4.95865509 -2 8 C-2.125 5.125 -2.125 5.125 -2 2 C-1.34 1.34 -0.68 0.68 0 0 Z " fill="#577D8A" transform="translate(345,99)"/>
<path d="M0 0 C2.51584891 0.24150773 2.51584891 0.24150773 5.1875 0.125 C6.53908203 0.09792969 6.53908203 0.09792969 7.91796875 0.0703125 C8.94857422 0.03550781 8.94857422 0.03550781 10 0 C9.01 1.485 9.01 1.485 8 3 C1.07 2.34 -5.86 1.68 -13 1 C-13 0.67 -13 0.34 -13 0 C-11.39950296 -0.39036513 -9.79437629 -0.76178619 -8.1875 -1.125 C-7.29417969 -1.33382812 -6.40085937 -1.54265625 -5.48046875 -1.7578125 C-3 -2 -3 -2 0 0 Z " fill="#476A77" transform="translate(348,172)"/>
<path d="M0 0 C2 2 2 2 2 5 C2.66 5.33 3.32 5.66 4 6 C3.67 6.99 3.34 7.98 3 9 C3.66 9 4.32 9 5 9 C5.33 7.35 5.66 5.7 6 4 C7.125 5.75 7.125 5.75 8 8 C6.92886167 11.31079119 5.98673647 12.00884235 3 14 C2.49528803 12.23050388 1.99639315 10.45934777 1.5 8.6875 C1.2215625 7.70136719 0.943125 6.71523437 0.65625 5.69921875 C0 3 0 3 0 0 Z " fill="#507282" transform="translate(346,118)"/>
<path d="M0 0 C0.66 0.33 1.32 0.66 2 1 C-0.06029645 4.09044468 -0.82606287 4.51221697 -4 6 C-4.66 6.66 -5.32 7.32 -6 8 C-8.63233792 8.8563027 -11.29546818 9.38929927 -14 10 C-11.19533807 7.00618646 -8.38815731 4.8006379 -4.875 2.6875 C-4.00617188 2.15511719 -3.13734375 1.62273438 -2.2421875 1.07421875 C-1.50226563 0.71972656 -0.76234375 0.36523438 0 0 Z " fill="#607E91" transform="translate(292,48)"/>
<path d="M0 0 C0.66 0 1.32 0 2 0 C2 0.66 2 1.32 2 2 C1.34 2 0.68 2 0 2 C-0.268125 2.61875 -0.53625 3.2375 -0.8125 3.875 C-2 6 -2 6 -5 8 C-6.32 8 -7.64 8 -9 8 C-9 8.66 -9 9.32 -9 10 C-10.32 9.67 -11.64 9.34 -13 9 C-11.71802734 8.15115234 -11.71802734 8.15115234 -10.41015625 7.28515625 C-9.2942305 6.54433159 -8.17834728 5.80344286 -7.0625 5.0625 C-6.49853516 4.68931641 -5.93457031 4.31613281 -5.35351562 3.93164062 C-2.53966389 2.14034283 -2.53966389 2.14034283 0 0 Z " fill="#577A89" transform="translate(398,214)"/>
<path d="M0 0 C0.515625 0.309375 1.03125 0.61875 1.5625 0.9375 C4.66665423 2.29059287 7.65115007 2.61359424 11 3 C11 3.33 11 3.66 11 4 C3.08 4.495 3.08 4.495 -5 5 C-3.35 3.35 -1.7 1.7 0 0 Z " fill="#456571" transform="translate(351,181)"/>
<path d="M0 0 C2.31 0 4.62 0 7 0 C6.67 1.32 6.34 2.64 6 4 C7.32 4 8.64 4 10 4 C10 5.65 10 7.3 10 9 C8.70391053 8.06862408 7.41328368 7.1296434 6.125 6.1875 C5.40570313 5.66542969 4.68640625 5.14335938 3.9453125 4.60546875 C2 3 2 3 0 0 Z " fill="#5A7987" transform="translate(263,117)"/>
<path d="M0 0 C2.0625 0.6875 2.0625 0.6875 4 2 C4.75 4.125 4.75 4.125 5 6 C3.1875 6.6875 3.1875 6.6875 1 7 C-0.75 5.75 -0.75 5.75 -2 4 C-2 3.01 -2 2.02 -2 1 C-1.34 0.67 -0.68 0.34 0 0 Z " fill="#5B8593" transform="translate(403,196)"/>
<path d="M0 0 C1.98 0.66 3.96 1.32 6 2 C6 4.64 6 7.28 6 10 C6.99 9.67 7.98 9.34 9 9 C9 9.99 9 10.98 9 12 C7.171875 11.84765625 7.171875 11.84765625 5 11 C3.515625 8.49609375 3.515625 8.49609375 2.25 5.4375 C1.82203125 4.42558594 1.3940625 3.41367188 0.953125 2.37109375 C0.63859375 1.58863281 0.3240625 0.80617187 0 0 Z " fill="#5F8599" transform="translate(244,192)"/>
<path d="M0 0 C0.33 0 0.66 0 1 0 C0.65229902 9.9268629 0.65229902 9.9268629 -1.9375 14.1875 C-4 16 -4 16 -6 16 C-4.27933894 10.55123997 -2.15294651 5.28830549 0 0 Z " fill="#5F8494" transform="translate(427,173)"/>
<path d="M0 0 C1.9375 0.75 1.9375 0.75 4 2 C4.75 4.125 4.75 4.125 5 6 C3.35 6.33 1.7 6.66 0 7 C-0.99 5.68 -1.98 4.36 -3 3 C-2.01 2.01 -1.02 1.02 0 0 Z " fill="#537B8D" transform="translate(370,165)"/>
<path d="M0 0 C2 2 2 2 2 6 C2.66 6.33 3.32 6.66 4 7 C0.7 6.67 -2.6 6.34 -6 6 C-4 4 -2 2 0 0 Z " fill="#4F7588" transform="translate(328,165)"/>
<path d="M0 0 C3.96 0 7.92 0 12 0 C12 0.66 12 1.32 12 2 C12.66 2.33 13.32 2.66 14 3 C12.41676312 3.027193 10.83338938 3.04648306 9.25 3.0625 C7.92742187 3.07990234 7.92742187 3.07990234 6.578125 3.09765625 C4.2181162 3.00826198 2.25501476 2.66912821 0 2 C0 1.34 0 0.68 0 0 Z " fill="#679BAF" transform="translate(359,139)"/>
<path d="M0 0 C3.625 0.1875 3.625 0.1875 6.625 2.1875 C3.655 2.1875 0.685 2.1875 -2.375 2.1875 C-2.375 2.8475 -2.375 3.5075 -2.375 4.1875 C-1.055 4.5175 0.265 4.8475 1.625 5.1875 C-1.015 5.1875 -3.655 5.1875 -6.375 5.1875 C-3.97168508 0.22064917 -3.97168508 0.22064917 0 0 Z " fill="#4D6E7C" transform="translate(361.375,136.8125)"/>
<path d="M0 0 C0.33 0.66 0.66 1.32 1 2 C0.01 2.33 -0.98 2.66 -2 3 C-2 2.34 -2 1.68 -2 1 C-3.65 1.33 -5.3 1.66 -7 2 C-7 2.66 -7 3.32 -7 4 C-11.29 3.34 -15.58 2.68 -20 2 C-20 1.67 -20 1.34 -20 1 C-13.30386804 0.202163 -6.74233419 -0.12910853 0 0 Z " fill="#497181" transform="translate(382,185)"/>
<path d="M0 0 C0.66 0.66 1.32 1.32 2 2 C0.68 2.33 -0.64 2.66 -2 3 C-2 3.66 -2 4.32 -2 5 C-2.66 5 -3.32 5 -4 5 C-5.11785113 7.11785113 -5.11785113 7.11785113 -6 10 C-6.99 9.34 -7.98 8.68 -9 8 C-8.4375 5.6875 -8.4375 5.6875 -7 3 C-4.72037377 1.65223022 -2.51912228 0.88635784 0 0 Z " fill="#659DB4" transform="translate(383,118)"/>
<path d="M0 0 C2 3 2 3 2 5 C2.66 5.33 3.32 5.66 4 6 C3.67 6.66 3.34 7.32 3 8 C2.01 8 1.02 8 0 8 C0 7.01 0 6.02 0 5 C-1.32 5 -2.64 5 -4 5 C-3.6875 3.0625 -3.6875 3.0625 -3 1 C-2.01 0.67 -1.02 0.34 0 0 Z " fill="#649DB2" transform="translate(273,116)"/>
<path d="M0 0 C4.875 0.875 4.875 0.875 6 2 C6.66 1.34 7.32 0.68 8 0 C8.66 1.32 9.32 2.64 10 4 C8.68 4.99 7.36 5.98 6 7 C4.02 4.69 2.04 2.38 0 0 Z " fill="#4D6E7D" transform="translate(312,117)"/>
<path d="M0 0 C3.76687864 1.88343932 4.79421646 2.69132469 7 6 C4 6 4 6 2 5 C1.67 6.65 1.34 8.3 1 10 C0.67 10 0.34 10 0 10 C0 6.7 0 3.4 0 0 Z " fill="#617D8A" transform="translate(311,69)"/>
<path d="M0 0 C6.6 0.33 13.2 0.66 20 1 C20 1.33 20 1.66 20 2 C7.625 2.99 7.625 2.99 -5 4 C-4.67 3.34 -4.34 2.68 -4 2 C-2.68 2 -1.36 2 0 2 C0 1.34 0 0.68 0 0 Z " fill="#4B7181" transform="translate(329,56)"/>
<path d="M0 0 C0.33 0 0.66 0 1 0 C1.33 2.97 1.66 5.94 2 9 C1.01 8.67 0.02 8.34 -1 8 C-1 10.31 -1 12.62 -1 15 C-1.33 15 -1.66 15 -2 15 C-2.66 11.04 -3.32 7.08 -4 3 C-3.67 3.66 -3.34 4.32 -3 5 C-2.34 5 -1.68 5 -1 5 C-0.67 3.35 -0.34 1.7 0 0 Z " fill="#466B7B" transform="translate(354,98)"/>
<path d="M0 0 C1.61725534 3.00950123 2.67582623 5.97103608 3.625 9.25 C3.88539063 10.14203125 4.14578125 11.0340625 4.4140625 11.953125 C4.60742188 12.62859375 4.80078125 13.3040625 5 14 C4.01 14.495 4.01 14.495 3 15 C3 14.34 3 13.68 3 13 C2.34 13 1.68 13 1 13 C0.855625 11.88625 0.71125 10.7725 0.5625 9.625 C0.21627965 6.17857953 0.21627965 6.17857953 -1 4 C-0.5625 1.875 -0.5625 1.875 0 0 Z " fill="#597C8B" transform="translate(258,167)"/>
<path d="M0 0 C0.66 0.33 1.32 0.66 2 1 C-0.31 3.97 -2.62 6.94 -5 10 C-6.32 9.67 -7.64 9.34 -9 9 C-6.03 6.03 -3.06 3.06 0 0 Z " fill="#5D8493" transform="translate(338,155)"/>
<path d="M0 0 C-0.99 3.96 -1.98 7.92 -3 12 C-3.33 12 -3.66 12 -4 12 C-5 5.375 -5 5.375 -5 2 C-2 0 -2 0 0 0 Z " fill="#50707C" transform="translate(392,149)"/>
<path d="M0 0 C1.43739513 -0.02712066 2.87493863 -0.04645067 4.3125 -0.0625 C5.51326172 -0.07990234 5.51326172 -0.07990234 6.73828125 -0.09765625 C9 0 9 0 12 1 C12 1.66 12 2.32 12 3 C10.56344146 3.08131463 9.1255517 3.13933559 7.6875 3.1875 C6.48673828 3.23970703 6.48673828 3.23970703 5.26171875 3.29296875 C2.52148416 2.93801608 1.70828921 2.10633718 0 0 Z " fill="#6799B0" transform="translate(377,140)"/>
<path d="M0 0 C1.670625 0.061875 1.670625 0.061875 3.375 0.125 C2.055 1.115 0.735 2.105 -0.625 3.125 C0.035 3.785 0.695 4.445 1.375 5.125 C-0.935 5.125 -3.245 5.125 -5.625 5.125 C-5.625 0.52392493 -4.48911497 0.15479707 0 0 Z " fill="#446474" transform="translate(322.625,172.875)"/>
<path d="M0 0 C0 0.99 0 1.98 0 3 C0.3062434 4.33981486 0.63451555 5.67511887 1 7 C-1.70879335 8.35439668 -4.00933268 8.06501451 -7 8 C-6.02133662 6.85373678 -5.04205413 5.70800212 -4.0625 4.5625 C-3.51722656 3.92441406 -2.97195313 3.28632812 -2.41015625 2.62890625 C-1.63204305 1.73008851 -0.84063472 0.84063472 0 0 Z " fill="#507485" transform="translate(375,121)"/>
<path d="M0 0 C-0.57344937 2.86724686 -0.8614515 3.8614515 -3 6 C-4.32 6 -5.64 6 -7 6 C-4.84615385 0 -4.84615385 0 0 0 Z " fill="#5D889C" transform="translate(400,93)"/>
<path d="M0 0 C0.99 0.99 1.98 1.98 3 3 C2.34 4.65 1.68 6.3 1 8 C-0.65 6.35 -2.3 4.7 -4 3 C-2.68 2.67 -1.36 2.34 0 2 C0 1.34 0 0.68 0 0 Z " fill="#568191" transform="translate(386,179)"/>
<path d="M0 0 C1.98 0.99 1.98 0.99 4 2 C4.75 5.625 4.75 5.625 5 9 C3.68 9 2.36 9 1 9 C0.67 6.03 0.34 3.06 0 0 Z " fill="#669CB2" transform="translate(298,153)"/>
<path d="M0 0 C1.32 0 2.64 0 4 0 C4 0.66 4 1.32 4 2 C4.66 2 5.32 2 6 2 C6 2.66 6 3.32 6 4 C3.69 4.33 1.38 4.66 -1 5 C-0.67 3.35 -0.34 1.7 0 0 Z " fill="#639BB5" transform="translate(308,122)"/>
<path d="M0 0 C0.66 0.33 1.32 0.66 2 1 C1.54965877 2.62723299 1.08944646 4.25173664 0.625 5.875 C0.36976563 6.77992187 0.11453125 7.68484375 -0.1484375 8.6171875 C-1 11 -1 11 -3 13 C-3.33 11.02 -3.66 9.04 -4 7 C-3.01 6.67 -2.02 6.34 -1 6 C-0.67 4.02 -0.34 2.04 0 0 Z " fill="#577C8E" transform="translate(262,107)"/>
<path d="M0 0 C2.97 0 5.94 0 9 0 C9 1.32 9 2.64 9 4 C4.545 3.01 4.545 3.01 0 2 C0 1.34 0 0.68 0 0 Z " fill="#6799A8" transform="translate(332,183)"/>
<path d="M0 0 C2.31 1.98 4.62 3.96 7 6 C6.01 7.485 6.01 7.485 5 9 C3.68 9 2.36 9 1 9 C1 8.34 1 7.68 1 7 C1.99 7 2.98 7 4 7 C4 6.34 4 5.68 4 5 C3.34 5 2.68 5 2 5 C2 4.34 2 3.68 2 3 C1.01 2.67 0.02 2.34 -1 2 C-0.67 1.34 -0.34 0.68 0 0 Z " fill="#587A87" transform="translate(310,119)"/>
<path d="M0 0 C2.4294516 3.6441774 2.16179575 5.71241272 2 10 C1.01 9.67 0.02 9.34 -1 9 C-1.625 5.625 -1.625 5.625 -2 2 C-1.34 1.34 -0.68 0.68 0 0 Z " fill="#679BB0" transform="translate(350,118)"/>
<path d="M0 0 C1.32 1.65 2.64 3.3 4 5 C1.03 7.475 1.03 7.475 -2 10 C-2 6 -2 6 0 4 C-0.99 3.67 -1.98 3.34 -3 3 C-2.01 2.01 -1.02 1.02 0 0 Z " fill="#537C8B" transform="translate(367,118)"/>
<path d="M0 0 C0.66 0.99 1.32 1.98 2 3 C2.99 2.67 3.98 2.34 5 2 C4.4409112 5.24271506 3.5867822 6.93057424 1 9 C0.34 9 -0.32 9 -1 9 C-0.67 6.03 -0.34 3.06 0 0 Z " fill="#4B6877" transform="translate(331,102)"/>
<path d="M0 0 C0.33 0.66 0.66 1.32 1 2 C2.65 1.67 4.3 1.34 6 1 C4.02 3.31 2.04 5.62 0 8 C-0.33 7.01 -0.66 6.02 -1 5 C-0.67 4.34 -0.34 3.68 0 3 C-0.66 2.67 -1.32 2.34 -2 2 C-1.34 1.34 -0.68 0.68 0 0 Z " fill="#5D879A" transform="translate(276,82)"/>
<path d="M0 0 C4.62 0 9.24 0 14 0 C10.3750203 1.81248985 8.62740416 2.31888915 4.75 2.625 C3.85796875 2.69976562 2.9659375 2.77453125 2.046875 2.8515625 C1.37140625 2.90054688 0.6959375 2.94953125 0 3 C0 2.01 0 1.02 0 0 Z " fill="#5C7E90" transform="translate(356,252)"/>
<path d="M0 0 C0.78375 0.04125 1.5675 0.0825 2.375 0.125 C1.385 0.785 0.395 1.445 -0.625 2.125 C0.365 3.115 1.355 4.105 2.375 5.125 C0.065 5.125 -2.245 5.125 -4.625 5.125 C-4.625 1.22254579 -3.95783286 0.18846823 0 0 Z " fill="#466D7C" transform="translate(314.625,178.875)"/>
<path d="M0 0 C0.99 0.33 1.98 0.66 3 1 C2.1875 3.9375 2.1875 3.9375 1 7 C0.01 7.33 -0.98 7.66 -2 8 C-2 6.02 -2 4.04 -2 2 C-1.34 2 -0.68 2 0 2 C0 1.34 0 0.68 0 0 Z " fill="#6595A5" transform="translate(325,158)"/>
<path d="M0 0 C1.65 0.33 3.3 0.66 5 1 C3.35 2.98 1.7 4.96 0 7 C-0.66 5.68 -1.32 4.36 -2 3 C-1.34 2.01 -0.68 1.02 0 0 Z " fill="#517E8E" transform="translate(324,149)"/>
<path d="M0 0 C5.28 0 10.56 0 16 0 C16 0.33 16 0.66 16 1 C15.12988281 1.07347656 15.12988281 1.07347656 14.2421875 1.1484375 C9.56076908 1.59649405 5.42514541 2.298021 1 4 C1.33 3.01 1.66 2.02 2 1 C1.34 0.67 0.68 0.34 0 0 Z " fill="#528094" transform="translate(368,146)"/>
<path d="M0 0 C0.99 0.33 1.98 0.66 3 1 C3 2.32 3 3.64 3 5 C3.66 5 4.32 5 5 5 C5.33 7.64 5.66 10.28 6 13 C3.87838666 10.87838666 3.07013751 9.2266841 1.875 6.5 C1.52179688 5.7059375 1.16859375 4.911875 0.8046875 4.09375 C0 2 0 2 0 0 Z " fill="#577887" transform="translate(421,103)"/>
<path d="M0 0 C1.32 0.66 2.64 1.32 4 2 C0.4513865 4.36574234 -0.5764525 4.10865265 -4.6875 3.625 C-6.17830078 3.45871094 -6.17830078 3.45871094 -7.69921875 3.2890625 C-8.45847656 3.19367188 -9.21773438 3.09828125 -10 3 C-10 2.67 -10 2.34 -10 2 C-6.7 2 -3.4 2 0 2 C0 1.34 0 0.68 0 0 Z " fill="#527A8C" transform="translate(316,202)"/>
<path d="M0 0 C0.66 0.66 1.32 1.32 2 2 C2.33 1.34 2.66 0.68 3 0 C4.65 0 6.3 0 8 0 C5.75 2.5625 5.75 2.5625 3 5 C0.6875 4.8125 0.6875 4.8125 -1 4 C-0.67 2.68 -0.34 1.36 0 0 Z " fill="#507481" transform="translate(280,199)"/>
<path d="M0 0 C6.75 -0.125 6.75 -0.125 9 1 C9 1.66 9 2.32 9 3 C6.36 3 3.72 3 1 3 C0.67 2.01 0.34 1.02 0 0 Z " fill="#699AAF" transform="translate(286,134)"/>
<path d="M0 0 C1.07765625 0.11988281 2.1553125 0.23976563 3.265625 0.36328125 C4.08546875 0.47027344 4.9053125 0.57726562 5.75 0.6875 C5.75 1.0175 5.75 1.3475 5.75 1.6875 C-2.17 2.1825 -2.17 2.1825 -10.25 2.6875 C-5.79547969 -0.65339023 -5.20185771 -0.62196125 0 0 Z " fill="#4C6D79" transform="translate(305.25,127.3125)"/>
<path d="M0 0 C3.63 0 7.26 0 11 0 C11.33 1.32 11.66 2.64 12 4 C6.06 2.515 6.06 2.515 0 1 C0 0.67 0 0.34 0 0 Z " fill="#5A7B8D" transform="translate(365,60)"/>
<path d="M0 0 C5.28 0.33 10.56 0.66 16 1 C16 1.33 16 1.66 16 2 C15.24074219 2.06058594 14.48148437 2.12117187 13.69921875 2.18359375 C12.70535156 2.26738281 11.71148437 2.35117188 10.6875 2.4375 C9.20830078 2.55931641 9.20830078 2.55931641 7.69921875 2.68359375 C4.90624401 2.91812559 4.90624401 2.91812559 2 4 C2 3.34 2 2.68 2 2 C1.34 1.34 0.68 0.68 0 0 Z " fill="#43697E" transform="translate(314,186)"/>
<path d="M0 0 C-1.62339805 1.70884005 -3.29319053 3.37446717 -5 5 C-5.66 5 -6.32 5 -7 5 C-6.625 2.5625 -6.625 2.5625 -6 0 C-3.50907189 -1.24546405 -2.58919267 -0.7767578 0 0 Z " fill="#476A76" transform="translate(368,115)"/>
<path d="M0 0 C1.98 0.99 1.98 0.99 4 2 C4 3.98 4 5.96 4 8 C3.01 8.33 2.02 8.66 1 9 C0.67 6.03 0.34 3.06 0 0 Z " fill="#689BAF" transform="translate(352,105)"/>
<path d="M0 0 C0.66 0.99 1.32 1.98 2 3 C-0.64 5.31 -3.28 7.62 -6 10 C-6.66 9.67 -7.32 9.34 -8 9 C-5.36 6.03 -2.72 3.06 0 0 Z " fill="#5D8493" transform="translate(413,199)"/>
<path d="M0 0 C0.66 0 1.32 0 2 0 C0.77472971 4.05281712 -0.69880494 7.44360764 -3 11 C-3.66 10.34 -4.32 9.68 -5 9 C-4.54625 8.2575 -4.0925 7.515 -3.625 6.75 C-2.31359204 4.53069422 -1.11719197 2.32032178 0 0 Z " fill="#618497" transform="translate(441,192)"/>
<path d="M0 0 C1.0625 1.8125 1.0625 1.8125 2 4 C1.67 4.99 1.34 5.98 1 7 C-1.0625 7.6875 -1.0625 7.6875 -3 8 C-3.33 5.69 -3.66 3.38 -4 1 C-3.67 1.99 -3.34 2.98 -3 4 C-2.34 4 -1.68 4 -1 4 C-0.67 2.68 -0.34 1.36 0 0 Z " fill="#425E6E" transform="translate(358,117)"/>
<path d="M0 0 C1.24211322 3.58832708 0.93335834 6.3443465 0 10 C-1.546875 11.68359375 -1.546875 11.68359375 -3 13 C-2.68991116 11.39536551 -2.37683713 9.79130769 -2.0625 8.1875 C-1.88847656 7.29417969 -1.71445313 6.40085937 -1.53515625 5.48046875 C-1 3 -1 3 0 0 Z " fill="#5D828F" transform="translate(239,111)"/>
<path d="M0 0 C1.98 0.66 3.96 1.32 6 2 C5.34 2.66 4.68 3.32 4 4 C3.34 3.67 2.68 3.34 2 3 C1.67 3.66 1.34 4.32 1 5 C1.66 5 2.32 5 3 5 C2.67 5.66 2.34 6.32 2 7 C1.01 6.34 0.02 5.68 -1 5 C-0.67 3.35 -0.34 1.7 0 0 Z " fill="#588295" transform="translate(309,110)"/>
<path d="M0 0 C0.33 0.66 0.66 1.32 1 2 C0.34 2 -0.32 2 -1 2 C-1.0825 2.598125 -1.165 3.19625 -1.25 3.8125 C-2.20455872 6.5966296 -3.57132271 7.43311142 -6 9 C-6 8.34 -6 7.68 -6 7 C-6.66 6.67 -7.32 6.34 -8 6 C-5.36 4.02 -2.72 2.04 0 0 Z " fill="#51788A" transform="translate(277,58)"/>
<path d="M0 0 C0.33 0.66 0.66 1.32 1 2 C2.64363134 2.72159424 4.31050386 3.39351421 6 4 C6 4.66 6 5.32 6 6 C2.08788267 4.84414715 -0.8745041 3.64465038 -4 1 C-2.68 0.67 -1.36 0.34 0 0 Z " fill="#587F8E" transform="translate(295,241)"/>
<path d="M0 0 C0.66 0.33 1.32 0.66 2 1 C1.3125 3.4375 1.3125 3.4375 0 6 C-2.625 6.8125 -2.625 6.8125 -5 7 C-4.1875 5.0625 -4.1875 5.0625 -3 3 C-2.01 2.67 -1.02 2.34 0 2 C0 1.34 0 0.68 0 0 Z " fill="#6A9AAD" transform="translate(390,98)"/>
<path d="M0 0 C-1.36983503 3.16115776 -1.9890638 3.9927092 -5 6 C-5.66 4.35 -6.32 2.7 -7 1 C-2.25 0 -2.25 0 0 0 Z " fill="#5A7F8F" transform="translate(288,187)"/>
<path d="M0 0 C3 1 3 1 5 4 C4.625 6.1875 4.625 6.1875 4 8 C4 7.34 4 6.68 4 6 C3.34 6 2.68 6 2 6 C2 5.34 2 4.68 2 4 C1.34 4 0.68 4 0 4 C0 2.68 0 1.36 0 0 Z " fill="#5F90A1" transform="translate(306,153)"/>
<path d="M0 0 C1.85776765 3.13498292 2.20140476 5.37471432 2 9 C1.01 9.495 1.01 9.495 0 10 C-0.66 7.03 -1.32 4.06 -2 1 C-1.34 0.67 -0.68 0.34 0 0 Z " fill="#4F7F8F" transform="translate(344,121)"/>
<path d="M0 0 C0.99 0.33 1.98 0.66 3 1 C1.29374499 3.78388975 0.52373261 4.85384206 -2.6875 5.75 C-3.8321875 5.87375 -3.8321875 5.87375 -5 6 C-3.35 4.02 -1.7 2.04 0 0 Z " fill="#6891A0" transform="translate(368,76)"/>
<path d="M0 0 C0.33 1.32 0.66 2.64 1 4 C-0.65 5.32 -2.3 6.64 -4 8 C-3.67 6.02 -3.34 4.04 -3 2 C-2.01 2 -1.02 2 0 2 C0 1.34 0 0.68 0 0 Z " fill="#4F7886" transform="translate(299,174)"/>
<path d="M0 0 C1.98 0.495 1.98 0.495 4 1 C3.1875 2.9375 3.1875 2.9375 2 5 C1.01 5.33 0.02 5.66 -1 6 C-0.67 4.02 -0.34 2.04 0 0 Z " fill="#567F97" transform="translate(364,162)"/>
<path d="M0 0 C1.485 0.99 1.485 0.99 3 2 C2.74438677 4.3431213 2.40729228 6.67843403 2 9 C1.01 9.495 1.01 9.495 0 10 C0.185625 9.278125 0.37125 8.55625 0.5625 7.8125 C1.01995307 4.87173027 0.73516357 2.85896942 0 0 Z " fill="#638C9E" transform="translate(393,151)"/>
<path d="M0 0 C0.66 0.33 1.32 0.66 2 1 C2.59355614 3.64860427 2.74209269 6.29197322 3 9 C2.01 8.67 1.02 8.34 0 8 C0.33 6.35 0.66 4.7 1 3 C0.01 2.67 -0.98 2.34 -2 2 C-1.34 1.34 -0.68 0.68 0 0 Z " fill="#567B88" transform="translate(299,146)"/>
<path d="M0 0 C0.66 0 1.32 0 2 0 C3.3271261 3.9813783 3.06915913 7.85045227 3 12 C2.67 12 2.34 12 2 12 C1.34 8.04 0.68 4.08 0 0 Z " fill="#597D8C" transform="translate(428,119)"/>
<path d="M0 0 C2.31 0 4.62 0 7 0 C5.35 1.65 3.7 3.3 2 5 C2 4.01 2 3.02 2 2 C1.34 2 0.68 2 0 2 C0 1.34 0 0.68 0 0 Z " fill="#547179" transform="translate(417,118)"/>
<path d="M0 0 C0.99 0 1.98 0 3 0 C2.67 1.65 2.34 3.3 2 5 C1.01 5.33 0.02 5.66 -1 6 C-1.042721 4.33388095 -1.04063832 2.66617115 -1 1 C-0.67 0.67 -0.34 0.34 0 0 Z " fill="#699CAE" transform="translate(333,100)"/>
<path d="M0 0 C2.1519437 3.22791555 2.20086443 4.28400809 2 8 C1.67 6.68 1.34 5.36 1 4 C-0.32 4.33 -1.64 4.66 -3 5 C-3 3.68 -3 2.36 -3 1 C-2.01 0.67 -1.02 0.34 0 0 Z " fill="#587F92" transform="translate(335,96)"/>
<path d="M0 0 C-6.625 3 -6.625 3 -10 3 C-9.67 2.01 -9.34 1.02 -9 0 C-2.25 -1.125 -2.25 -1.125 0 0 Z " fill="#5C7C8D" transform="translate(323,60)"/>
<path d="M0 0 C-3.85756507 2.15305957 -6.55129785 3.39253254 -11 3 C-11 2.34 -11 1.68 -11 1 C-3.57142857 -1.42857143 -3.57142857 -1.42857143 0 0 Z " fill="#608493" transform="translate(322,39)"/>
<path d="M0 0 C0 2.31 0 4.62 0 7 C-2 5.6875 -2 5.6875 -4 4 C-4 3.01 -4 2.02 -4 1 C-1 0 -1 0 0 0 Z " fill="#5F899D" transform="translate(267,217)"/>
<path d="M0 0 C1.98 1.65 3.96 3.3 6 5 C5.67 5.66 5.34 6.32 5 7 C3.0625 6.3125 3.0625 6.3125 1 5 C0.25 2.375 0.25 2.375 0 0 Z " fill="#517485" transform="translate(279,206)"/>
<path d="M0 0 C0.99 0.99 1.98 1.98 3 3 C-1.29 3 -5.58 3 -10 3 C-10 2.67 -10 2.34 -10 2 C-8.40119187 1.58305004 -6.79558739 1.19209144 -5.1875 0.8125 C-4.29417969 0.59207031 -3.40085937 0.37164062 -2.48046875 0.14453125 C-1.66191406 0.09683594 -0.84335937 0.04914063 0 0 Z " fill="#517888" transform="translate(345,170)"/>
<path d="M0 0 C0.66 0 1.32 0 2 0 C2 2.31 2 4.62 2 7 C1.01 6.67 0.02 6.34 -1 6 C-0.67 4.02 -0.34 2.04 0 0 Z " fill="#557889" transform="translate(377,161)"/>
<path d="M0 0 C0.33 1.32 0.66 2.64 1 4 C2.32 4 3.64 4 5 4 C4.67 4.99 4.34 5.98 4 7 C0.83884224 5.63016497 0.0072908 5.0109362 -2 2 C-1.34 2 -0.68 2 0 2 C0 1.34 0 0.68 0 0 Z " fill="#5A7C8E" transform="translate(321,111)"/>
<path d="M0 0 C0.99 0.33 1.98 0.66 3 1 C1.25 4.875 1.25 4.875 -1 6 C-1 5.34 -1 4.68 -1 4 C-1.66 3.67 -2.32 3.34 -3 3 C-2.01 2.01 -1.02 1.02 0 0 Z " fill="#89959B" transform="translate(403,87)"/>
<path d="M0 0 C0.33 0.66 0.66 1.32 1 2 C1.66 2.33 2.32 2.66 3 3 C1.35 4.32 -0.3 5.64 -2 7 C-2 6.34 -2 5.68 -2 5 C-2.66 4.67 -3.32 4.34 -4 4 C-2.68 2.68 -1.36 1.36 0 0 Z " fill="#5D899A" transform="translate(360,84)"/>
<path d="M0 0 C4.455 1.98 4.455 1.98 9 4 C9 4.33 9 4.66 9 5 C5.625 4.75 5.625 4.75 2 4 C1.34 2.68 0.68 1.36 0 0 Z " fill="#5D7D8C" transform="translate(392,47)"/>
<path d="M0 0 C0.66 0.33 1.32 0.66 2 1 C-0.475 4.465 -0.475 4.465 -3 8 C-3.66 7.34 -4.32 6.68 -5 6 C-4.34 6 -3.68 6 -3 6 C-3 4.68 -3 3.36 -3 2 C-2.01 2 -1.02 2 0 2 C0 1.34 0 0.68 0 0 Z " fill="#618493" transform="translate(432,208)"/>
<path d="M0 0 C0.99 0 1.98 0 3 0 C2.01 2.97 1.02 5.94 0 9 C-0.95904856 5.16380575 -0.91892116 3.67568464 0 0 Z " fill="#5B7F8D" transform="translate(444,183)"/>
<path d="M0 0 C0 0.66 0 1.32 0 2 C-2.875 2.125 -2.875 2.125 -6 2 C-6.66 1.34 -7.32 0.68 -8 0 C-5.13822943 -1.43088528 -3.06624227 -0.59991697 0 0 Z " fill="#6692A8" transform="translate(361,181)"/>
<path d="M0 0 C-2.31 1.65 -4.62 3.3 -7 5 C-6.625 2.5625 -6.625 2.5625 -6 0 C-4 -1 -4 -1 0 0 Z " fill="#4E7387" transform="translate(350,143)"/>
<path d="M0 0 C2.97 0.495 2.97 0.495 6 1 C6 1.66 6 2.32 6 3 C6.66 3.33 7.32 3.66 8 4 C5.6875 4.25 5.6875 4.25 3 4 C1.1875 2 1.1875 2 0 0 Z " fill="#426471" transform="translate(291,140)"/>
<path d="M0 0 C1.231394 3.69418201 0.64432764 6.2056261 0 10 C-1.58538318 7.48203847 -2.0373656 6.32134414 -1.6875 3.3125 C-1 1 -1 1 0 0 Z " fill="#547180" transform="translate(310,135)"/>
<path d="M0 0 C-0.33 0.99 -0.66 1.98 -1 3 C-3.31 2.67 -5.62 2.34 -8 2 C-4.91190305 0.23537317 -3.76687864 0 0 0 Z " fill="#679AB2" transform="translate(396,135)"/>
<path d="M0 0 C2.475 0.99 2.475 0.99 5 2 C4.34 3.32 3.68 4.64 3 6 C2.01 6 1.02 6 0 6 C0.66 5.67 1.32 5.34 2 5 C1.01 3.68 0.02 2.36 -1 1 C-0.67 0.67 -0.34 0.34 0 0 Z " fill="#4C7181" transform="translate(355,129)"/>
<path d="M0 0 C0 3.10551666 -0.5393715 4.35261084 -2 7 C-3.32 6.67 -4.64 6.34 -6 6 C-4.02 4.02 -2.04 2.04 0 0 Z " fill="#466573" transform="translate(326,119)"/>
<path d="M0 0 C1.98 1.65 3.96 3.3 6 5 C5.34 5.66 4.68 6.32 4 7 C2 5.75 2 5.75 0 4 C0 2.68 0 1.36 0 0 Z " fill="#668B9A" transform="translate(318,75)"/>
<path d="M0 0 C0.33 1.32 0.66 2.64 1 4 C-0.9375 6.25 -0.9375 6.25 -3 8 C-3.66 7.67 -4.32 7.34 -5 7 C-3.35 4.69 -1.7 2.38 0 0 Z " fill="#5E8192" transform="translate(258,76)"/>
<path d="M0 0 C0.66 0.33 1.32 0.66 2 1 C-0.93828597 3.50298434 -3.17902761 4.46930939 -7 5 C-7 4.34 -7 3.68 -7 3 C-4.69631264 1.93347808 -2.35981813 0.93578995 0 0 Z " fill="#5D7D8C" transform="translate(303,43)"/>
<path d="M0 0 C0.99 0 1.98 0 3 0 C2.625 1.9375 2.625 1.9375 2 4 C1.01 4.495 1.01 4.495 0 5 C0 3.35 0 1.7 0 0 Z " fill="#565A5D" transform="translate(339,98)"/>
</svg>
